<svg xmlns="http://www.w3.org/2000/svg" xmlns:xlink="http://www.w3.org/1999/xlink" width="800" zoomAndPan="magnify" viewBox="0 0 600 225" height="300" preserveAspectRatio="xMidYMid meet" version="1.0"><path fill="currentColor" d="M 288.917969 117.691406 L 196.644531 117.691406 C 192.9375 117.691406 189.320312 116.859375 186.074219 115.28125 C 178.144531 111.339844 174.480469 104.804688 176.570312 98.21875 C 176.613281 98.078125 176.660156 97.941406 176.707031 97.800781 C 177.726562 99.007812 179.351562 99.65625 181.066406 99.46875 C 182.78125 99.285156 184.171875 98.359375 184.824219 96.921875 C 185.425781 95.4375 185.378906 93.8125 184.683594 92.515625 C 184.21875 91.632812 183.199219 90.476562 181.066406 90.105469 C 179.535156 89.871094 178.238281 90.335938 177.125 91.171875 C 176.984375 91.261719 176.894531 91.355469 176.800781 91.449219 C 175.039062 92.933594 173.832031 95.390625 173.277344 97.152344 C 170.773438 105.128906 174.574219 112.871094 183.246094 117.691406 L 173.183594 117.691406 C 170.171875 116.953125 167.015625 116.164062 162.289062 112.917969 C 160.199219 111.480469 158.253906 109.855469 156.492188 108.003906 C 157.371094 104.292969 157.28125 100.628906 156.214844 97.335938 C 153.105469 87.691406 141.976562 81.203125 128.484375 81.203125 C 127.511719 81.203125 126.675781 81.898438 126.628906 82.871094 C 126.492188 86.347656 126.863281 95.160156 133.816406 102.761719 C 139.9375 109.441406 149.769531 109.996094 153.523438 110.179688 C 153.617188 110.179688 153.710938 110.179688 153.800781 110.179688 C 155.796875 112.269531 157.976562 114.167969 160.339844 115.792969 C 161.453125 116.535156 162.472656 117.183594 163.398438 117.691406 L 129.179688 117.691406 C 117.679688 115.792969 114.898438 112.917969 111.191406 108.605469 C 110.308594 103.78125 106.601562 95.390625 97.511719 92.328125 C 95.65625 91.726562 92.273438 91.402344 88.65625 91.125 C 85.179688 90.800781 80.402344 90.429688 79.148438 89.6875 C 75.765625 87.738281 75.023438 86.394531 74.835938 85.886719 C 74.558594 85.050781 73.726562 84.585938 72.796875 84.773438 C 71.917969 84.957031 71.359375 85.839844 71.453125 86.765625 C 71.824219 90.011719 72.660156 96.78125 77.992188 102.160156 C 87.636719 111.804688 98.023438 114.863281 108.964844 111.339844 C 111.097656 113.75 113.183594 115.886719 116.800781 117.691406 L 16.785156 117.691406 C 15.8125 117.691406 15.023438 118.480469 15.023438 119.457031 C 15.023438 120.429688 15.8125 121.171875 16.785156 121.171875 L 128.949219 121.171875 C 128.949219 121.171875 128.996094 121.171875 129.042969 121.171875 L 136.089844 121.171875 C 133.632812 122.285156 131.035156 123.675781 128.578125 125.484375 L 127.742188 125.390625 C 122.828125 124.695312 112.675781 123.257812 103.726562 126.734375 C 97.511719 129.144531 93.058594 134.386719 90.417969 137.539062 L 89.628906 138.464844 C 89.257812 138.929688 89.117188 139.53125 89.257812 140.089844 C 89.398438 140.644531 89.859375 141.109375 90.417969 141.25 C 96.585938 143.148438 101.40625 143.890625 105.347656 143.890625 C 111.652344 143.890625 115.59375 141.945312 118.792969 139.578125 C 120.601562 138.28125 121.808594 136.9375 123.152344 135.359375 C 124.40625 133.921875 125.84375 132.253906 128.253906 130.167969 C 128.855469 129.65625 129.460938 129.144531 130.0625 128.730469 C 130.0625 128.730469 130.109375 128.730469 130.15625 128.683594 C 134.929688 125.113281 140.402344 123.117188 144.15625 121.726562 L 145.546875 121.21875 L 173 121.21875 C 173 121.21875 173 121.21875 173.042969 121.21875 L 190.433594 121.21875 C 184.082031 123.582031 179.164062 126.179688 175.039062 128.636719 C 174.066406 128.636719 171.375 128.359375 168.917969 128.125 C 163.492188 127.570312 156.722656 126.875 153.246094 127.292969 C 148.839844 127.800781 143.371094 129.238281 134.003906 139.441406 C 133.539062 139.902344 133.445312 140.597656 133.632812 141.203125 C 133.816406 141.804688 134.421875 142.269531 135.070312 142.316406 C 135.164062 142.316406 140.679688 142.917969 146.800781 142.917969 C 151.667969 142.917969 156.910156 142.546875 160.15625 141.25 C 164.28125 139.578125 167.898438 137.261719 171.746094 134.804688 C 178.933594 130.210938 187.09375 125.019531 202.210938 121.21875 L 288.964844 121.21875 C 289.9375 121.21875 290.679688 120.429688 290.679688 119.5 C 290.679688 118.574219 289.9375 117.738281 288.964844 117.738281 Z M 153.246094 106.65625 C 149.628906 106.472656 141.328125 105.777344 136.367188 100.398438 C 131.222656 94.789062 130.246094 88.15625 130.109375 84.726562 C 141.191406 85.234375 150.417969 90.707031 152.921875 98.402344 C 153.753906 100.953125 153.847656 103.691406 153.246094 106.65625 Z M 80.449219 99.703125 C 77.992188 97.246094 76.644531 94.371094 75.902344 91.773438 C 76.367188 92.050781 76.832031 92.375 77.386719 92.65625 C 79.195312 93.675781 82.71875 94.046875 88.332031 94.554688 C 91.578125 94.832031 94.914062 95.113281 96.351562 95.621094 C 103.308594 97.988281 106.507812 104.0625 107.527344 108.140625 C 103.445312 109.441406 92.96875 112.175781 80.449219 99.65625 Z M 120.511719 133.039062 C 119.257812 134.476562 118.238281 135.636719 116.753906 136.703125 C 112.535156 139.765625 106.832031 142.082031 94.035156 138.605469 C 96.628906 135.589844 100.246094 131.742188 104.976562 129.886719 C 111.886719 127.199219 119.859375 127.800781 124.914062 128.449219 C 122.96875 130.257812 121.621094 131.789062 120.554688 133.039062 Z M 169.800781 131.789062 C 165.949219 134.246094 162.613281 136.378906 158.761719 137.910156 C 154.496094 139.671875 144.851562 139.484375 138.917969 139.070312 C 146.570312 131.464844 150.742188 130.953125 153.570312 130.628906 C 156.675781 130.257812 163.492188 130.953125 168.5 131.464844 C 169.058594 131.511719 169.566406 131.558594 170.03125 131.605469 C 169.9375 131.648438 169.890625 131.695312 169.800781 131.742188 Z M 169.800781 131.789062 " fill-opacity="1" fill-rule="nonzero"/><path fill="currentColor" d="M 5.75 113.707031 C 2.597656 113.707031 0 116.253906 0 119.457031 C 0 122.65625 2.550781 125.203125 5.75 125.203125 C 8.949219 125.203125 11.5 122.65625 11.5 119.457031 C 11.5 116.253906 8.949219 113.707031 5.75 113.707031 Z M 5.75 113.707031 " fill-opacity="1" fill-rule="nonzero"/><path fill="currentColor" d="M 299.953125 113.707031 C 296.800781 113.707031 294.203125 116.253906 294.203125 119.457031 C 294.203125 122.65625 296.753906 125.203125 299.953125 125.203125 C 303.152344 125.203125 305.703125 122.65625 305.703125 119.457031 C 305.703125 116.253906 303.152344 113.707031 299.953125 113.707031 Z M 299.953125 113.707031 " fill-opacity="1" fill-rule="nonzero"/><path fill="currentColor" d="M 583.121094 117.691406 L 483.105469 117.691406 C 486.675781 115.929688 488.808594 113.796875 490.941406 111.339844 C 501.839844 114.863281 512.273438 111.757812 521.917969 102.160156 C 527.25 96.828125 528.082031 90.058594 528.5 86.625 C 528.59375 85.746094 528.039062 84.910156 527.15625 84.726562 C 526.273438 84.539062 525.394531 85.050781 525.117188 85.886719 C 524.976562 86.394531 524.234375 87.738281 520.804688 89.6875 C 519.550781 90.429688 514.777344 90.800781 511.296875 91.125 C 507.679688 91.449219 504.296875 91.726562 502.441406 92.328125 C 493.355469 95.390625 489.597656 103.78125 488.761719 108.605469 C 485.054688 112.917969 482.273438 115.792969 470.773438 117.691406 L 436.554688 117.691406 C 437.527344 117.136719 438.546875 116.535156 439.613281 115.792969 C 441.976562 114.167969 444.15625 112.316406 446.152344 110.179688 C 446.246094 110.179688 446.335938 110.179688 446.429688 110.179688 C 450.140625 109.996094 460.015625 109.441406 466.136719 102.761719 C 473.042969 95.203125 473.460938 86.347656 473.277344 82.871094 C 473.277344 81.898438 472.394531 81.203125 471.421875 81.203125 C 457.929688 81.203125 446.800781 87.691406 443.648438 97.335938 C 442.582031 100.582031 442.488281 104.246094 443.371094 108.003906 C 441.609375 109.8125 439.660156 111.480469 437.574219 112.917969 C 432.84375 116.164062 429.691406 116.953125 426.675781 117.691406 L 416.613281 117.691406 C 425.285156 112.871094 429.089844 105.128906 426.585938 97.152344 C 426.027344 95.390625 424.824219 92.933594 423.058594 91.449219 C 422.96875 91.355469 422.875 91.261719 422.734375 91.171875 C 421.621094 90.335938 420.324219 89.824219 418.792969 90.105469 C 416.660156 90.476562 415.640625 91.632812 415.179688 92.515625 C 414.480469 93.8125 414.4375 95.4375 415.039062 96.921875 C 415.6875 98.359375 417.078125 99.285156 418.792969 99.46875 C 420.511719 99.65625 422.132812 99.007812 423.152344 97.800781 C 423.199219 97.941406 423.246094 98.078125 423.292969 98.21875 C 425.378906 104.804688 421.714844 111.339844 413.785156 115.28125 C 410.539062 116.90625 406.96875 117.691406 403.121094 117.691406 L 310.941406 117.691406 C 309.96875 117.691406 309.179688 118.480469 309.179688 119.457031 C 309.179688 120.429688 309.96875 121.171875 310.941406 121.171875 L 397.695312 121.171875 C 409.566406 124.136719 417.171875 127.988281 423.339844 131.742188 C 423.339844 131.742188 423.429688 131.789062 423.476562 131.835938 C 425.101562 132.808594 426.675781 133.828125 428.160156 134.757812 C 432.007812 137.214844 435.625 139.484375 439.753906 141.203125 C 443 142.5 448.238281 142.871094 453.105469 142.871094 C 459.226562 142.871094 464.746094 142.269531 464.835938 142.269531 C 465.488281 142.175781 466.042969 141.757812 466.273438 141.15625 C 466.507812 140.550781 466.367188 139.855469 465.902344 139.394531 C 456.539062 129.191406 451.066406 127.800781 446.660156 127.246094 C 443.183594 126.828125 436.414062 127.523438 430.988281 128.078125 C 428.53125 128.3125 425.84375 128.589844 424.867188 128.589844 C 420.742188 126.132812 415.828125 123.535156 409.472656 121.171875 L 426.863281 121.171875 C 426.863281 121.171875 426.863281 121.171875 426.910156 121.171875 L 454.359375 121.171875 L 455.75 121.679688 C 459.503906 123.070312 464.976562 125.066406 469.707031 128.636719 C 469.707031 128.636719 469.800781 128.683594 469.84375 128.730469 C 470.449219 129.191406 471.050781 129.65625 471.605469 130.167969 C 473.972656 132.253906 475.410156 133.921875 476.707031 135.359375 C 478.050781 136.890625 479.210938 138.234375 481.066406 139.578125 C 484.3125 141.898438 488.207031 143.890625 494.511719 143.890625 C 498.40625 143.890625 503.277344 143.148438 509.445312 141.25 C 510 141.0625 510.417969 140.644531 510.601562 140.089844 C 510.789062 139.53125 510.601562 138.929688 510.230469 138.464844 L 509.445312 137.539062 C 506.800781 134.386719 502.304688 129.101562 496.136719 126.734375 C 487.1875 123.257812 477.03125 124.695312 472.117188 125.390625 L 471.28125 125.484375 C 468.777344 123.722656 466.230469 122.328125 463.769531 121.171875 L 470.820312 121.171875 C 470.820312 121.171875 470.867188 121.171875 470.910156 121.171875 L 583.074219 121.171875 C 584.050781 121.171875 584.835938 120.382812 584.835938 119.457031 C 584.835938 118.527344 584.050781 117.691406 583.074219 117.691406 Z M 503.554688 95.621094 C 504.992188 95.113281 508.332031 94.832031 511.578125 94.554688 C 517.1875 94.09375 520.710938 93.722656 522.519531 92.65625 C 523.03125 92.328125 523.539062 92.050781 524.003906 91.726562 C 523.261719 94.324219 521.917969 97.152344 519.460938 99.65625 C 506.984375 112.128906 496.460938 109.394531 492.378906 108.140625 C 493.398438 104.015625 496.601562 97.941406 503.554688 95.621094 Z M 446.984375 98.402344 C 449.488281 90.660156 458.71875 85.1875 469.800781 84.726562 C 469.660156 88.15625 468.6875 94.742188 463.539062 100.398438 C 458.625 105.777344 450.324219 106.472656 446.660156 106.65625 C 446.058594 103.738281 446.152344 100.953125 446.984375 98.402344 Z M 431.359375 131.511719 C 436.367188 131 443.183594 130.304688 446.289062 130.675781 C 449.117188 131 453.246094 131.511719 460.941406 139.113281 C 455.007812 139.484375 445.363281 139.671875 441.097656 137.957031 C 437.25 136.378906 433.910156 134.292969 430.0625 131.835938 C 429.96875 131.789062 429.921875 131.742188 429.828125 131.695312 C 430.292969 131.695312 430.804688 131.605469 431.359375 131.558594 Z M 494.929688 129.933594 C 499.660156 131.789062 503.324219 135.636719 505.875 138.652344 C 493.074219 142.128906 487.371094 139.8125 483.152344 136.75 C 481.667969 135.683594 480.648438 134.523438 479.398438 133.085938 C 478.285156 131.835938 476.984375 130.304688 474.992188 128.496094 C 480.046875 127.894531 488.023438 127.292969 494.929688 129.933594 Z M 494.929688 129.933594 " fill-opacity="1" fill-rule="nonzero"/><path fill="currentColor" d="M 594.15625 113.707031 C 591.003906 113.707031 588.40625 116.253906 588.40625 119.457031 C 588.40625 122.65625 590.957031 125.203125 594.15625 125.203125 C 597.355469 125.203125 599.90625 122.65625 599.90625 119.457031 C 599.90625 116.253906 597.355469 113.707031 594.15625 113.707031 Z M 594.15625 113.707031 " fill-opacity="1" fill-rule="nonzero"/></svg>