<svg xmlns="http://www.w3.org/2000/svg" xmlns:xlink="http://www.w3.org/1999/xlink" width="1000" zoomAndPan="magnify" viewBox="0 0 750 749.999995" height="1000" preserveAspectRatio="xMidYMid meet" version="1.0"><defs><clipPath id="802cd78365"><path d="M 0 14.53125 L 750 14.53125 L 750 735.28125 L 0 735.28125 Z M 0 14.53125 " clip-rule="nonzero"/></clipPath></defs><g clip-path="url(#802cd78365)"><path fill="#333333" d="M 486.183594 735.277344 C 479.117188 735.277344 472.152344 733.875 465.375 730.328125 C 442.257812 718.226562 438.335938 690.914062 434.539062 664.5 C 433.601562 657.980469 432.71875 651.828125 431.550781 645.871094 C 429.324219 634.480469 425.511719 623.171875 421.824219 612.238281 C 420.632812 608.722656 419.4375 605.171875 418.285156 601.589844 C 416.132812 604.84375 413.851562 608.058594 411.449219 611.226562 C 388.894531 640.921875 359.359375 663.421875 328.535156 685.746094 C 301.324219 705.457031 274.285156 723.269531 242.707031 724.71875 C 199.675781 726.742188 158.921875 692.457031 153.226562 650 L 152.882812 647.242188 C 152.410156 643.28125 151.96875 639.535156 150.414062 636.285156 C 146.457031 627.996094 136.875 624.953125 126.734375 621.730469 C 123.328125 620.648438 119.804688 619.527344 116.523438 618.191406 C 83.03125 604.578125 70.777344 561.445312 80.339844 529.703125 C 91.425781 492.910156 123.195312 469.109375 147.894531 455.621094 C 154.691406 451.910156 161.769531 448.480469 168.613281 445.164062 C 179.242188 440.015625 190.140625 434.734375 200.160156 428.28125 C 162.75 433.355469 124.769531 435.382812 87.058594 434.320312 C 71.355469 433.871094 53.386719 432.648438 38.925781 423.683594 C 10.429688 406.027344 6.648438 366.476562 17.554688 338.226562 C 18.605469 335.511719 19.773438 332.8125 20.945312 330.117188 C 24.414062 322.125 27.695312 314.574219 27.917969 306.488281 C 28.253906 294.492188 21.941406 283.917969 15.261719 272.722656 C 11.941406 267.171875 8.515625 261.433594 5.933594 255.460938 C -1.378906 238.558594 -1.898438 218.957031 4.503906 201.683594 C 9.914062 187.105469 19.726562 176.769531 31.429688 173.328125 C 40.269531 170.726562 49.355469 172.144531 58.136719 173.511719 C 59.777344 173.765625 61.410156 174.023438 63.035156 174.246094 C 88.363281 177.785156 114.140625 174.296875 137.609375 164.1875 C 140.472656 162.953125 143.3125 161.621094 146.152344 160.285156 C 154.96875 156.144531 164.078125 151.863281 174.050781 150.519531 C 190.007812 148.347656 205.558594 153.964844 219.296875 158.902344 C 243.097656 167.457031 267.386719 176.1875 290.304688 187.675781 C 276.363281 161.09375 264.457031 132.546875 265.859375 102.617188 C 267.351562 70.964844 289.109375 35.757812 322.949219 31.636719 C 335.382812 30.117188 347.65625 32.929688 359.519531 35.648438 C 370.105469 38.070312 381.050781 40.597656 391.722656 39.816406 C 404.855469 38.882812 417.578125 33.03125 429.875 27.378906 C 445.078125 20.386719 460.753906 13.148438 477.847656 14.757812 C 503.953125 17.203125 522.75 38.972656 539.332031 58.179688 C 554.566406 75.8125 575.050781 95.863281 599.015625 94.023438 L 600.710938 93.878906 C 606.238281 93.40625 613.144531 92.8125 617.265625 97.933594 C 619.605469 100.835938 619.988281 104.554688 620.164062 107.8125 C 620.378906 111.800781 620.46875 115.84375 620.4375 119.835938 C 620.292969 138.214844 617.394531 157.238281 611.8125 176.386719 C 603.140625 206.132812 586.871094 233.613281 564.769531 255.863281 C 545.402344 275.355469 521.582031 289.539062 498.539062 303.253906 C 492.671875 306.75 486.816406 310.238281 481.035156 313.804688 C 476.972656 316.316406 472.847656 318.78125 468.710938 321.246094 C 465.445312 323.195312 462.144531 325.160156 458.859375 327.167969 C 455.5625 336.132812 451.859375 344.945312 447.769531 353.535156 C 456.6875 346.203125 467.386719 340.582031 479.117188 337.226562 C 498.59375 331.667969 520.425781 332.253906 542.289062 338.914062 C 562.078125 344.941406 576.375 355.066406 583.640625 368.191406 C 588.390625 376.785156 589.847656 388.660156 582.375 395.828125 C 572.382812 405.4375 556.558594 398.066406 547.101562 393.660156 C 518.699219 380.421875 484.933594 378.058594 454.757812 386.851562 C 503.828125 398.996094 543.519531 443.082031 549.148438 493.601562 C 549.785156 499.324219 550.078125 505.980469 547.421875 511.984375 C 544.792969 517.933594 538.238281 523.390625 530.898438 522.339844 C 526.960938 521.773438 523.707031 519.496094 520.710938 517.207031 C 482.429688 487.964844 451.5625 449.882812 430.855469 406.488281 C 429.246094 451.046875 417.148438 491.910156 395.570312 525.363281 C 390 534.003906 381.074219 545.71875 367.945312 547.726562 C 352.261719 550.160156 338.242188 536.851562 334.308594 523.171875 C 330.90625 511.328125 332.488281 497.546875 339.144531 481.039062 C 353.117188 446.375 379.582031 417.660156 403.574219 392.28125 C 386.941406 385.203125 367.390625 388.363281 353.507812 392.46875 C 345.609375 394.800781 337.730469 397.828125 330.105469 400.753906 C 320.144531 404.574219 309.84375 408.527344 299.207031 411.082031 C 288.410156 413.675781 268.464844 416.132812 256.402344 403.441406 C 249.804688 396.5 247.207031 387.863281 248.890625 378.46875 C 251.257812 365.257812 262.269531 351.445312 275.660156 344.882812 C 288.640625 338.519531 305.128906 335.335938 326.0625 335.15625 C 342.238281 334.953125 358.457031 337.191406 374.078125 341.609375 C 385.796875 344.921875 401.355469 349.316406 411.59375 359.066406 C 416.847656 350.042969 431.96875 338.191406 432.171875 338.035156 C 439.113281 332.6875 446.546875 327.84375 454.039062 323.230469 C 460.242188 305.996094 464.902344 288.183594 467.863281 270.246094 C 468.507812 266.339844 469.238281 262.476562 469.96875 258.636719 C 472.707031 244.222656 475.289062 230.609375 473.035156 216.113281 C 472.484375 212.511719 471.597656 208.4375 469.28125 205.515625 C 466.027344 201.414062 461.914062 199.335938 457.070312 199.335938 C 457.023438 199.335938 456.980469 199.335938 456.933594 199.335938 C 447.257812 199.414062 436.792969 207.34375 431.164062 214.679688 C 410.046875 242.171875 415.449219 280.9375 420.214844 315.136719 C 420.65625 318.257812 421.082031 321.351562 421.488281 324.402344 C 421.703125 326.011719 420.574219 327.488281 418.964844 327.703125 C 417.363281 327.898438 415.886719 326.789062 415.667969 325.179688 C 415.261719 322.140625 414.832031 319.058594 414.394531 315.945312 C 409.472656 280.605469 403.890625 240.550781 426.5 211.101562 C 433.191406 202.386719 445.179688 193.554688 456.886719 193.460938 C 456.945312 193.460938 457.007812 193.460938 457.070312 193.460938 C 463.703125 193.460938 469.515625 196.363281 473.878906 201.863281 C 477.050781 205.859375 478.167969 210.855469 478.84375 215.210938 C 481.25 230.710938 478.449219 245.464844 475.742188 259.734375 C 475.023438 263.527344 474.296875 267.34375 473.660156 271.199219 C 471.027344 287.15625 467.074219 303.007812 461.910156 318.464844 C 463.175781 317.707031 464.441406 316.953125 465.695312 316.203125 C 469.808594 313.75 473.910156 311.304688 477.949219 308.808594 C 483.753906 305.226562 489.640625 301.71875 495.535156 298.210938 C 518.261719 284.679688 541.757812 270.6875 560.597656 251.722656 C 582.015625 230.171875 597.773438 203.550781 606.171875 174.746094 C 611.601562 156.117188 614.421875 137.625 614.5625 119.789062 C 614.59375 115.917969 614.503906 111.992188 614.300781 108.125 C 614.167969 105.679688 613.933594 103.160156 612.683594 101.617188 C 610.53125 98.929688 605.78125 99.34375 601.210938 99.734375 L 599.453125 99.878906 C 573.03125 101.851562 551.019531 80.695312 534.886719 62.019531 C 519.027344 43.652344 501.054688 22.832031 477.296875 20.605469 C 461.84375 19.148438 447.496094 25.738281 432.332031 32.710938 C 419.554688 38.589844 406.34375 44.664062 392.140625 45.675781 C 380.585938 46.492188 369.210938 43.890625 358.207031 41.371094 C 346.304688 38.644531 335.054688 36.078125 323.660156 37.464844 C 292.902344 41.214844 273.101562 73.675781 271.730469 102.894531 C 270.28125 133.699219 283.851562 163.449219 298.738281 191.007812 C 299.003906 191.507812 299.28125 192.007812 299.546875 192.507812 C 311.238281 198.886719 322.484375 206.101562 333.035156 214.515625 C 370.902344 244.714844 391.457031 286.238281 388.019531 325.585938 C 387.914062 326.777344 387.101562 327.789062 385.960938 328.140625 C 384.800781 328.480469 383.570312 328.117188 382.816406 327.1875 C 349.746094 286.636719 320.289062 242.800781 295.222656 196.851562 C 270.433594 183.527344 243.566406 173.867188 217.304688 164.429688 C 204.199219 159.71875 189.363281 154.382812 174.835938 156.339844 C 165.765625 157.5625 157.449219 161.46875 148.652344 165.601562 C 145.75 166.960938 142.855469 168.324219 139.9375 169.578125 C 115.480469 180.117188 88.597656 183.75 62.222656 180.066406 C 60.570312 179.832031 58.90625 179.574219 57.234375 179.316406 C 49.09375 178.054688 40.671875 176.738281 33.085938 178.964844 C 23.183594 181.875 14.769531 190.902344 10.011719 203.726562 C 4.128906 219.59375 4.609375 237.601562 11.328125 253.132812 C 13.757812 258.753906 17.085938 264.328125 20.304688 269.714844 C 27.121094 281.136719 34.179688 292.949219 33.792969 306.652344 C 33.535156 315.871094 29.875 324.304688 26.332031 332.457031 C 25.195312 335.078125 24.054688 337.703125 23.03125 340.34375 C 12.835938 366.753906 17.152344 403.28125 42.023438 418.695312 C 55.242188 426.886719 71.601562 428.003906 87.226562 428.449219 C 128.597656 429.613281 170.363281 427.019531 211.308594 420.742188 C 212.628906 420.539062 213.914062 421.25 214.441406 422.46875 C 214.972656 423.691406 214.621094 425.117188 213.570312 425.945312 C 200.648438 436.171875 185.660156 443.429688 171.179688 450.449219 C 164.390625 453.738281 157.382812 457.132812 150.710938 460.777344 C 126.976562 473.738281 96.472656 496.511719 85.964844 531.398438 C 77.148438 560.667969 88.210938 600.339844 118.734375 612.753906 C 121.804688 614 125.066406 615.035156 128.515625 616.132812 C 139.402344 619.589844 150.660156 623.167969 155.714844 633.753906 C 157.683594 637.878906 158.210938 642.285156 158.71875 646.550781 L 159.046875 649.214844 C 164.355469 688.789062 202.726562 720.675781 242.433594 718.851562 C 272.398438 717.476562 298.628906 700.15625 325.09375 680.988281 C 355.542969 658.933594 384.703125 636.730469 406.765625 607.675781 C 410.097656 603.289062 413.179688 598.808594 416.007812 594.261719 C 413.894531 587.128906 412.078125 579.867188 410.964844 572.472656 C 407.078125 546.722656 414.199219 515.351562 438.878906 503.308594 C 439.722656 502.902344 440.714844 502.921875 441.527344 503.347656 C 442.355469 503.777344 442.929688 504.582031 443.070312 505.503906 C 447.4375 534.039062 439.953125 565.859375 422.390625 595.082031 C 423.972656 600.234375 425.691406 605.332031 427.386719 610.363281 C 431.136719 621.480469 435.011719 632.972656 437.320312 644.746094 C 438.511719 650.847656 439.445312 657.363281 440.355469 663.664062 C 443.9375 688.617188 447.644531 714.417969 468.097656 725.125 C 485.449219 734.210938 504.558594 727.207031 524.789062 719.785156 C 538.253906 714.851562 552.171875 709.75 566.199219 709.273438 C 578.46875 708.84375 590.785156 712.042969 602.703125 715.113281 C 620.101562 719.605469 636.519531 723.847656 651.65625 717.136719 C 657.488281 714.550781 663.121094 710.207031 668.882812 703.867188 C 695.175781 674.9375 702.421875 628.375 687.347656 585.25 C 679.550781 562.929688 666.441406 541.441406 647.652344 520.285156 C 627.960938 518.90625 607.042969 513.148438 586.023438 503.128906 C 579.6875 500.109375 571.136719 495.082031 570.0625 486.351562 C 569.546875 482.148438 571.027344 477.96875 574.242188 474.582031 C 578.304688 470.289062 584.449219 467.890625 590.308594 468.273438 C 599.792969 468.921875 607.8125 474.96875 614.589844 480.589844 C 628.179688 491.859375 640.109375 503.164062 650.425781 514.574219 C 665.097656 515.335938 679.007812 513.507812 691.578125 509.035156 C 722.359375 498.085938 750.65625 464.121094 742.703125 428.335938 C 739.878906 415.613281 732.734375 403.847656 725.828125 392.472656 C 717.398438 378.582031 708.679688 364.210938 707.328125 347.613281 C 706.128906 332.894531 709.75 318.699219 713.25 304.972656 C 715.894531 294.59375 718.632812 283.855469 719.140625 273.195312 C 719.738281 261.003906 715.40625 249.320312 706.964844 240.292969 C 697.851562 230.554688 684.761719 224.824219 671.054688 224.574219 C 668.835938 224.539062 666.617188 224.671875 664.503906 224.980469 C 646.53125 227.636719 632.15625 241.917969 620.101562 255.09375 L 618.914062 256.394531 C 605.289062 271.296875 589.851562 288.1875 569.035156 292.21875 C 567.464844 292.535156 565.902344 291.492188 565.59375 289.894531 C 565.285156 288.304688 566.324219 286.765625 567.917969 286.453125 C 586.824219 282.789062 600.933594 267.355469 614.578125 252.429688 L 615.761719 251.132812 C 629.441406 236.183594 644.710938 221.96875 663.648438 219.171875 C 666.078125 218.8125 668.625 218.671875 671.164062 218.703125 C 686.445312 218.980469 701.058594 225.386719 711.25 236.277344 C 720.796875 246.476562 725.683594 259.6875 725.015625 273.476562 C 724.46875 284.734375 721.65625 295.761719 718.9375 306.425781 C 715.402344 320.292969 712.066406 333.394531 713.179688 347.140625 C 714.421875 362.351562 722.402344 375.503906 730.851562 389.425781 C 738.007812 401.210938 745.402344 413.394531 748.4375 427.0625 C 757.085938 465.976562 726.679688 502.78125 693.550781 514.566406 C 681.867188 518.726562 669.222656 520.742188 655.714844 520.605469 C 673.074219 540.988281 685.359375 561.75 692.898438 583.308594 C 708.667969 628.441406 700.949219 677.3125 673.234375 707.8125 C 666.90625 714.773438 660.632812 719.582031 654.035156 722.507812 C 637.03125 730.042969 618.835938 725.34375 601.230469 720.804688 C 589.71875 717.832031 577.792969 714.75 566.394531 715.144531 C 553.308594 715.585938 539.835938 720.523438 526.8125 725.296875 C 513.351562 730.230469 499.597656 735.273438 486.183594 735.277344 Z M 437.8125 510.621094 C 418.882812 522.648438 413.519531 550.054688 416.773438 571.597656 C 417.566406 576.851562 418.738281 582.078125 420.132812 587.261719 C 434.1875 562.027344 440.484375 535.152344 437.8125 510.621094 Z M 381.144531 382.222656 C 391.945312 382.222656 401.636719 384.410156 409.851562 388.773438 C 410.667969 389.203125 411.222656 389.988281 411.375 390.894531 C 411.523438 391.796875 411.238281 392.722656 410.609375 393.386719 C 386.273438 419.109375 358.6875 448.261719 344.589844 483.234375 C 338.445312 498.480469 336.925781 511.011719 339.953125 521.550781 C 343.207031 532.839844 354.492188 543.832031 367.058594 541.921875 C 377.839844 540.269531 385.679688 529.867188 390.636719 522.179688 C 413.71875 486.390625 425.65625 441.796875 425.148438 393.226562 C 425.132812 391.824219 426.113281 390.605469 427.488281 390.320312 C 428.835938 390.039062 430.242188 390.761719 430.789062 392.046875 C 450.941406 439.546875 483.269531 481.214844 524.28125 512.542969 C 526.757812 514.433594 529.191406 516.164062 531.734375 516.527344 C 536.230469 517.195312 540.355469 513.4375 542.050781 509.609375 C 544.136719 504.882812 543.859375 499.195312 543.304688 494.25 C 537.554688 442.59375 494.417969 398 442.972656 390.515625 C 441.652344 390.324219 440.625 389.265625 440.472656 387.941406 C 440.324219 386.617188 441.085938 385.355469 442.332031 384.871094 C 476.363281 371.617188 516.472656 372.910156 549.585938 388.335938 C 560.527344 393.4375 571.769531 397.882812 578.308594 391.59375 C 583.5 386.613281 582.042969 377.445312 578.496094 371.035156 C 570.269531 356.175781 553.335938 348.417969 540.578125 344.527344 C 519.785156 338.195312 499.09375 337.625 480.734375 342.875 C 461.992188 348.230469 446.136719 359.75 436.589844 374.800781 C 435.84375 376.089844 435.085938 377.371094 434.324219 378.644531 C 433.511719 380.023438 431.738281 380.480469 430.351562 379.6875 C 428.957031 378.894531 428.460938 377.136719 429.222656 375.730469 C 429.960938 374.386719 430.734375 373.0625 431.554688 371.769531 C 438.820312 359.195312 445.199219 345.972656 450.601562 332.328125 C 445.492188 335.613281 440.488281 339.039062 435.757812 342.683594 C 430.390625 346.824219 416.617188 359.867188 415.617188 363.707031 C 416.136719 364.914062 415.804688 366.367188 414.71875 367.207031 C 413.441406 368.191406 411.601562 367.964844 410.605469 366.6875 C 401.945312 355.585938 384.917969 350.773438 372.480469 347.261719 C 357.394531 342.992188 341.773438 340.933594 326.113281 341.027344 C 306.078125 341.203125 290.417969 344.1875 278.246094 350.152344 C 268.273438 355.046875 256.96875 366.695312 254.675781 379.503906 C 253.316406 387.09375 255.328125 393.785156 260.65625 399.394531 C 270.691406 409.953125 288.253906 407.664062 297.839844 405.371094 C 308.101562 402.90625 318.214844 399.027344 327.996094 395.269531 C 335.726562 392.304688 343.722656 389.234375 351.839844 386.835938 C 362.253906 383.757812 372.089844 382.222656 381.144531 382.222656 Z M 589.054688 474.105469 C 585.207031 474.105469 581.152344 475.824219 578.5 478.621094 C 577.097656 480.101562 575.507812 482.515625 575.894531 485.632812 C 576.613281 491.5 583.460938 495.402344 588.546875 497.828125 C 606.65625 506.457031 624.648438 511.824219 641.742188 513.835938 C 632.640625 504.214844 622.351562 494.660156 610.832031 485.109375 C 604.492188 479.84375 597.648438 474.660156 589.910156 474.136719 C 589.621094 474.113281 589.339844 474.105469 589.054688 474.105469 Z M 304.980469 202.363281 C 327.589844 242.714844 353.605469 281.347656 382.5 317.449219 C 382.539062 282.734375 362.699219 245.6875 329.375 219.109375 C 321.617188 212.921875 313.445312 207.390625 304.980469 202.363281 Z M 304.980469 202.363281 " fill-opacity="1" fill-rule="nonzero"/></g></svg>