<svg xmlns="http://www.w3.org/2000/svg" xmlns:xlink="http://www.w3.org/1999/xlink" width="1000" zoomAndPan="magnify" viewBox="0 0 750 749.999995" height="1000" preserveAspectRatio="xMidYMid meet" version="1.0"><defs><clipPath id="d1f3dbf259"><path d="M 268.050781 0 L 481.800781 0 L 481.800781 750 L 268.050781 750 Z M 268.050781 0 " clip-rule="nonzero"/></clipPath></defs><g clip-path="url(#d1f3dbf259)"><path fill="currentColor" d="M 389.671875 63.277344 C 389.667969 62.25 389.855469 61.183594 389.632812 60.207031 C 388.375 54.660156 387.019531 49.136719 385.699219 43.605469 C 383.695312 39.5625 382.109375 35.265625 378.621094 32.144531 C 376.40625 30.15625 374.238281 28.109375 371.949219 26.203125 C 370.339844 24.847656 368.515625 23.898438 366.480469 23.363281 C 363.867188 22.683594 362.253906 21.058594 361.625 18.363281 C 361.269531 16.84375 360.738281 15.390625 360.039062 13.996094 C 359.417969 12.773438 359.585938 11.773438 360.234375 10.707031 C 361.300781 8.9375 362.359375 7.160156 363.425781 5.386719 C 364.109375 4.246094 365.046875 3.859375 366.414062 4.207031 C 367.035156 4.367188 367.625 4.648438 368.242188 4.835938 C 368.917969 5.042969 369.605469 4.957031 369.953125 4.320312 C 370.664062 3.027344 371.71875 2.5625 373.140625 2.523438 C 373.890625 2.503906 374.644531 2.199219 375.378906 1.96875 C 376.128906 1.765625 376.855469 1.5 377.558594 1.160156 C 378.820312 0.484375 380.054688 2.242188 381.242188 1.179688 C 382.179688 0.34375 383.289062 0.113281 384.464844 0.0390625 C 384.980469 0 385.496094 0.00390625 386.011719 0.046875 C 386.339844 0.0664062 386.644531 0.167969 386.917969 0.351562 C 387.191406 0.539062 387.402344 0.777344 387.546875 1.078125 C 388.636719 3.277344 389.753906 5.464844 390.808594 7.683594 C 391.097656 8.269531 391.257812 8.886719 391.289062 9.539062 C 391.351562 12.253906 391.433594 14.957031 390.804688 17.660156 C 389.859375 21.695312 388.949219 25.722656 387.195312 29.503906 C 386.960938 29.96875 386.824219 30.464844 386.78125 30.984375 C 386.644531 34.347656 386.359375 37.738281 387.652344 40.964844 C 387.902344 41.597656 387.84375 42.46875 388.6875 42.785156 C 389.027344 42.238281 389.339844 41.675781 389.617188 41.097656 C 390.882812 38.09375 392.527344 35.3125 394.558594 32.761719 C 395.667969 31.355469 397.078125 30.179688 398.394531 28.945312 C 398.796875 28.609375 399.246094 28.363281 399.746094 28.203125 C 400.390625 27.96875 401.082031 28.058594 401.503906 28.621094 C 401.832031 29.03125 401.992188 29.496094 401.980469 30.019531 C 401.839844 31.050781 401.597656 32.054688 401.257812 33.039062 C 400.085938 36.480469 398.636719 39.789062 396.585938 42.824219 C 395.191406 44.886719 393.644531 46.820312 391.476562 48.070312 C 390.023438 48.910156 390.101562 49.929688 390.4375 51.304688 C 391.222656 54.570312 391.921875 57.855469 392.542969 61.160156 C 393 63.570312 393.304688 66.011719 393.644531 68.445312 C 394.074219 71.519531 394.464844 74.597656 394.875 77.671875 C 394.925781 78.058594 395.007812 78.441406 395.035156 78.828125 C 395.359375 83.480469 395.613281 88.136719 396.011719 92.78125 C 396.402344 97.300781 396.757812 101.820312 396.757812 106.359375 C 396.757812 112.066406 396.769531 117.777344 396.796875 123.488281 C 396.832031 123.742188 396.898438 123.988281 396.996094 124.226562 C 397.199219 124.140625 397.382812 124.03125 397.550781 123.890625 C 398.332031 123.023438 399.074219 122.125 399.855469 121.257812 C 401.441406 119.503906 403.261719 118.078125 405.515625 117.261719 C 406.511719 116.898438 407.707031 117.832031 407.558594 118.886719 C 407.507812 119.269531 407.417969 119.648438 407.296875 120.015625 C 406.539062 122.324219 405.367188 124.394531 403.78125 126.234375 C 402.195312 128.074219 400.320312 129.539062 398.148438 130.625 C 397.074219 131.179688 396.660156 131.800781 396.605469 132.984375 C 396.429688 136.734375 396.203125 140.488281 395.855469 144.222656 C 395.542969 147.570312 395.039062 150.898438 394.621094 154.234375 C 394.3125 156.675781 394 159.113281 393.699219 161.550781 C 392.90625 167.96875 391.867188 174.347656 390.738281 180.714844 C 389.769531 186.1875 389.035156 191.703125 388.105469 197.183594 C 387.066406 203.300781 385.96875 209.410156 384.816406 215.507812 C 383.65625 221.601562 382.394531 227.675781 381.179688 233.757812 C 380.039062 239.460938 378.867188 245.160156 377.761719 250.871094 C 376.507812 257.339844 375.289062 263.816406 374.097656 270.300781 C 372.921875 276.652344 371.769531 283.011719 370.636719 289.375 C 369.980469 293.066406 369.371094 296.765625 368.742188 300.460938 C 368.03125 304.664062 367.28125 308.863281 366.621094 313.074219 C 365.960938 317.292969 365.402344 321.523438 364.789062 325.746094 C 364.136719 330.226562 363.453125 334.699219 362.8125 339.179688 C 362.445312 341.738281 362.121094 344.308594 361.792969 346.875 C 361.546875 348.796875 361.273438 350.722656 361.101562 352.652344 C 360.742188 356.78125 360.601562 360.9375 360.074219 365.042969 C 359.308594 370.960938 359.511719 376.933594 358.824219 382.859375 C 358.402344 386.453125 358.601562 390.117188 358.457031 393.746094 C 358.34375 396.589844 358.167969 399.433594 357.941406 402.269531 C 357.84375 403.71875 358.117188 405.09375 358.765625 406.394531 C 361.121094 411.4375 363.441406 416.5 365.726562 421.574219 C 371.246094 433.855469 376.75 446.140625 382.234375 458.433594 C 389.101562 473.800781 396.007812 489.148438 402.796875 504.546875 C 408.753906 518.054688 415.117188 531.371094 421.320312 544.765625 C 428.28125 559.804688 435.15625 574.882812 441.9375 590 C 446.9375 601.09375 451.457031 612.386719 455.984375 623.679688 C 458.488281 629.925781 461.132812 636.113281 463.695312 642.335938 C 467.195312 650.835938 470 659.582031 472.960938 668.273438 C 474.753906 673.539062 476.5625 678.796875 478.445312 684.03125 C 479.144531 685.972656 480.089844 687.828125 480.890625 689.734375 C 481.210938 690.441406 481.460938 691.171875 481.640625 691.925781 C 481.714844 692.253906 481.675781 692.570312 481.527344 692.871094 C 481.378906 693.171875 481.152344 693.394531 480.84375 693.535156 C 480.382812 693.792969 479.585938 693.453125 479.296875 692.769531 C 477.9375 689.554688 476.464844 686.375 475.300781 683.085938 C 472.023438 673.816406 468.992188 664.460938 465.652344 655.214844 C 463.148438 648.28125 460.378906 641.441406 457.621094 634.605469 C 453.746094 625.003906 449.808594 615.429688 445.816406 605.875 C 442.917969 598.953125 439.984375 592.039062 436.859375 585.214844 C 428.230469 566.378906 419.460938 547.609375 410.816406 528.78125 C 404.226562 514.425781 397.703125 500.042969 391.238281 485.628906 C 385.328125 472.390625 379.605469 459.074219 373.765625 445.804688 C 371.261719 440.113281 368.699219 434.453125 366.128906 428.792969 C 363.929688 423.960938 361.699219 419.144531 359.4375 414.34375 C 359.039062 413.5 358.910156 412.484375 358.070312 411.882812 C 357.925781 412.769531 357.832031 413.65625 357.785156 414.554688 C 357.789062 422.210938 357.628906 429.875 357.914062 437.519531 C 358.140625 443.722656 358.359375 449.941406 359.175781 456.109375 C 359.253906 456.753906 359.296875 457.402344 359.304688 458.050781 C 359.449219 463.109375 360.109375 468.113281 360.792969 473.117188 C 361.410156 477.601562 361.839844 482.113281 362.546875 486.582031 C 363.578125 493.09375 364.613281 499.609375 365.953125 506.0625 C 369.554688 523.40625 374.105469 540.527344 379.007812 557.539062 C 381.726562 566.976562 385.042969 576.246094 388.199219 585.554688 C 392.222656 597.4375 396.53125 609.222656 401.320312 620.824219 C 406.984375 634.613281 413.433594 648.027344 420.664062 661.066406 C 424.882812 668.648438 429.027344 676.273438 433.324219 683.816406 C 441.285156 697.78125 449.625 711.511719 459.097656 724.511719 C 463.601562 730.691406 468.382812 736.664062 473.042969 742.726562 C 474.148438 744.164062 475.289062 745.574219 476.386719 747.019531 C 476.613281 747.320312 476.859375 747.722656 476.839844 748.058594 C 476.8125 748.5625 476.65625 749.023438 476.367188 749.4375 C 476.207031 749.65625 475.992188 749.792969 475.726562 749.847656 C 475.460938 749.902344 475.210938 749.863281 474.976562 749.726562 C 473.902344 749.199219 472.800781 748.480469 472.492188 747.371094 C 471.835938 744.996094 470.125 743.378906 468.699219 741.582031 C 461.132812 732.027344 453.863281 722.257812 447.234375 712.023438 C 441.105469 702.558594 435.289062 692.90625 429.789062 683.066406 C 424.609375 673.792969 419.378906 664.539062 414.398438 655.160156 C 406.371094 640.050781 399.550781 624.394531 393.53125 608.375 C 388.929688 596.140625 384.664062 583.792969 380.519531 571.402344 C 376.871094 560.488281 373.824219 549.390625 370.960938 538.242188 C 368.359375 528.101562 365.675781 517.972656 363.519531 507.730469 C 362.105469 501.03125 360.847656 494.289062 360.039062 487.46875 C 359.507812 482.976562 358.625 478.527344 358.050781 474.039062 C 357.59375 470.445312 357.378906 466.820312 357.042969 463.210938 C 356.613281 458.570312 356.105469 453.941406 355.765625 449.296875 C 355.539062 446.191406 355.679688 443.0625 355.425781 439.960938 C 354.679688 430.898438 354.945312 421.824219 354.953125 412.753906 C 354.949219 411.328125 355.046875 409.910156 355.25 408.503906 C 355.527344 406.789062 355.265625 405.160156 354.464844 403.617188 C 351.839844 398.414062 349.328125 393.152344 346.667969 387.964844 C 341.941406 378.742188 337.167969 369.542969 332.351562 360.367188 C 330.671875 357.171875 328.851562 354.046875 327.207031 350.824219 C 325.558594 347.59375 323.746094 344.449219 322 341.269531 C 321.8125 340.929688 321.597656 340.601562 321.414062 340.261719 C 320.945312 339.390625 320.253906 338.910156 319.234375 338.914062 C 315.742188 338.925781 312.703125 337.527344 309.734375 335.882812 C 308.019531 334.898438 306.601562 333.59375 305.472656 331.972656 C 305.199219 331.535156 305.105469 331.0625 305.191406 330.554688 C 305.328125 329.835938 305.984375 329.523438 306.65625 329.515625 C 308.335938 329.496094 310.023438 329.386719 311.625 330.125 C 312.910156 330.71875 314.234375 331.234375 315.558594 331.746094 C 315.804688 331.808594 316.023438 331.757812 316.21875 331.59375 C 316.324219 331.484375 316.269531 331.15625 316.195312 330.960938 C 316.050781 330.597656 315.878906 330.25 315.675781 329.917969 C 310.917969 321.75 306.304688 313.5 301.492188 305.359375 C 298.074219 299.578125 294.027344 294.132812 291.425781 287.867188 C 291.136719 287.175781 290.550781 286.59375 290.054688 286.003906 C 286.234375 281.429688 283.921875 276.117188 282.589844 270.378906 C 282.097656 268.246094 281.980469 266.023438 281.78125 263.832031 C 281.742188 263.378906 282.035156 262.839844 282.304688 262.425781 C 282.609375 261.964844 283.152344 261.746094 283.652344 262.085938 C 284.398438 262.589844 285.066406 263.207031 285.796875 263.734375 C 286.015625 263.886719 286.25 263.925781 286.503906 263.84375 C 286.703125 263.660156 286.800781 263.433594 286.804688 263.167969 C 286.890625 261.613281 286.941406 260.054688 287.011719 258.5 C 287.0625 257.011719 287.59375 255.722656 288.609375 254.632812 C 289.164062 254.027344 290.183594 253.980469 290.675781 254.5625 C 290.84375 254.757812 291 254.964844 291.136719 255.1875 C 293.351562 258.871094 295.03125 262.722656 295.703125 267.039062 C 296.226562 270.398438 296.300781 273.742188 296.347656 277.113281 C 296.378906 279.25 295.992188 281.277344 294.714844 283 C 293.34375 284.847656 293.640625 286.671875 294.625 288.460938 C 296.0625 291.066406 297.605469 293.617188 299.148438 296.164062 C 299.703125 297.03125 300.308594 297.859375 300.964844 298.648438 C 301.03125 298.734375 301.511719 298.667969 301.53125 298.597656 C 301.921875 297.234375 302.238281 295.847656 302.636719 294.484375 C 303.191406 292.605469 304.042969 290.871094 305.191406 289.285156 C 305.671875 288.617188 306.253906 288.152344 307.140625 288.304688 C 307.964844 288.445312 308.652344 289.21875 308.679688 290.285156 C 308.726562 292.097656 308.890625 293.953125 308.589844 295.722656 C 308.066406 298.773438 307.492188 301.875 305.75 304.53125 C 305.042969 305.609375 305.328125 306.445312 305.871094 307.371094 C 306.984375 309.273438 308.105469 311.167969 309.183594 313.089844 C 315.273438 323.933594 321.359375 334.777344 327.4375 345.628906 C 327.675781 346.089844 327.949219 346.527344 328.246094 346.949219 C 328.371094 347.113281 328.753906 347.292969 328.847656 347.226562 C 329.054688 347.058594 329.167969 346.839844 329.179688 346.570312 C 329.078125 342.421875 328.984375 338.269531 328.808594 334.125 C 328.730469 332.320312 328.457031 330.519531 328.289062 328.71875 C 327.863281 324.078125 327.617188 319.425781 326.929688 314.8125 C 326.527344 312.125 326.324219 309.410156 325.96875 306.714844 C 325.371094 302.230469 324.753906 297.746094 324.082031 293.273438 C 323.757812 291.101562 323.214844 288.960938 322.925781 286.785156 C 322.886719 286.332031 322.734375 285.921875 322.472656 285.550781 C 322.207031 285.183594 321.867188 284.90625 321.449219 284.726562 C 319.359375 283.609375 317.578125 282.125 316.105469 280.273438 C 313.996094 277.707031 312.703125 274.78125 312.222656 271.496094 C 312.03125 270.289062 313.300781 269.167969 314.457031 269.597656 C 315.292969 269.929688 316.0625 270.378906 316.761719 270.949219 C 317.871094 271.835938 318.886719 272.835938 319.957031 273.777344 C 320.054688 273.835938 320.152344 273.835938 320.253906 273.78125 C 320.367188 273.707031 320.4375 273.601562 320.460938 273.464844 C 320.433594 272.5625 320.480469 271.640625 320.316406 270.757812 C 318.5625 261.226562 316.933594 251.667969 314.9375 242.183594 C 313.394531 234.855469 311.394531 227.621094 309.554688 220.355469 C 309.34375 219.605469 308.996094 218.929688 308.511719 218.320312 C 305.914062 214.960938 304.519531 211.203125 303.914062 206.964844 C 303.390625 203.332031 303.507812 199.726562 303.414062 196.109375 C 303.4375 195.71875 303.523438 195.347656 303.671875 194.988281 C 303.835938 194.46875 304.761719 194.070312 305.285156 194.316406 C 305.632812 194.480469 305.921875 194.757812 306.253906 194.957031 C 306.945312 195.371094 307.078125 195.300781 307.210938 194.570312 C 307.542969 192.792969 307.84375 191.007812 308.25 189.246094 C 308.464844 188.496094 308.761719 187.78125 309.144531 187.101562 C 309.488281 186.417969 310.640625 186.222656 311.148438 186.773438 C 311.667969 187.335938 312.230469 187.917969 312.558594 188.597656 C 314.433594 192.480469 315.71875 196.523438 315.734375 200.894531 C 315.75 206.761719 315.007812 212.53125 313.167969 218.097656 C 312.617188 219.582031 312.542969 221.085938 312.933594 222.621094 C 313.996094 226.75 315.039062 230.886719 316.054688 235.027344 C 316.546875 237.035156 316.964844 239.0625 317.425781 241.078125 C 317.484375 241.324219 317.585938 241.566406 317.667969 241.808594 C 317.921875 241.570312 318.144531 241.308594 318.339844 241.019531 C 319.363281 239.066406 320.335938 237.085938 321.976562 235.542969 C 322.351562 235.1875 322.699219 234.800781 323.089844 234.460938 C 323.589844 234.023438 324.136719 233.679688 324.835938 234.019531 C 325.136719 234.15625 325.382812 234.363281 325.566406 234.640625 C 325.75 234.917969 325.847656 235.222656 325.859375 235.554688 C 326.117188 239.121094 325.558594 242.554688 323.8125 245.691406 C 322.839844 247.375 321.75 248.972656 320.539062 250.496094 C 320.207031 250.894531 319.980469 251.351562 319.855469 251.855469 C 319.734375 252.363281 319.730469 252.871094 319.84375 253.378906 C 320.859375 258.972656 321.835938 264.578125 322.828125 270.175781 C 323.800781 275.644531 324.824219 281.109375 325.734375 286.589844 C 326.414062 290.671875 326.953125 294.773438 327.550781 298.867188 C 328.242188 303.601562 328.960938 308.328125 329.605469 313.066406 C 329.953125 315.632812 330.222656 318.210938 330.429688 320.789062 C 330.78125 325.046875 331.039062 329.316406 331.363281 333.578125 C 331.519531 335.640625 331.8125 337.695312 331.914062 339.761719 C 332.046875 342.484375 332.054688 345.207031 332.109375 347.933594 C 332.15625 348.710938 332.152344 349.488281 332.09375 350.265625 C 331.753906 352.96875 332.699219 355.246094 333.945312 357.617188 C 340.679688 370.464844 347.261719 383.394531 353.914062 396.289062 C 354.28125 397 354.375 397.921875 355.285156 398.265625 C 355.378906 397.5 355.515625 396.734375 355.554688 395.964844 C 355.863281 389.625 356.082031 383.277344 356.472656 376.945312 C 356.777344 372.035156 357.300781 367.144531 357.71875 362.242188 C 358.046875 358.371094 358.296875 354.492188 358.699219 350.628906 C 359.019531 347.539062 359.515625 344.472656 359.933594 341.398438 C 360.242188 339.089844 360.535156 336.777344 360.867188 334.472656 C 361.960938 326.789062 362.929688 319.085938 364.238281 311.4375 C 364.832031 307.847656 364.875 304.246094 364.363281 300.640625 C 364.042969 298.210938 364.238281 295.71875 364.109375 293.257812 C 363.929688 289.894531 363.667969 286.539062 363.433594 283.183594 C 363.109375 278.53125 362.859375 273.871094 362.429688 269.226562 C 362.15625 266.269531 361.617188 263.335938 361.207031 260.390625 C 360.886719 258.082031 360.542969 255.777344 360.277344 253.460938 C 359.4375 246.128906 357.839844 238.929688 356.597656 231.667969 C 354.296875 218.265625 350.789062 205.148438 347.542969 191.976562 C 344.324219 178.921875 340.644531 165.980469 336.070312 153.316406 C 335.015625 150.398438 333.902344 147.496094 332.808594 144.59375 C 332.5 143.777344 331.90625 143.40625 331.011719 143.421875 C 329.457031 143.445312 327.882812 143.566406 326.351562 143.367188 C 322.144531 142.832031 318.800781 140.832031 316.578125 137.125 C 316.371094 136.796875 316.191406 136.453125 316.039062 136.09375 C 315.730469 135.332031 315.695312 134.578125 316.273438 133.914062 C 316.496094 133.664062 316.769531 133.496094 317.09375 133.410156 C 317.417969 133.324219 317.738281 133.332031 318.054688 133.433594 C 321.300781 134.25 324.683594 134.570312 327.738281 136.097656 C 328.074219 136.269531 328.417969 136.289062 328.773438 136.15625 C 329.371094 135.816406 329.0625 135.207031 328.886719 134.777344 C 328.109375 132.855469 327.300781 130.949219 326.445312 129.0625 C 322.957031 121.398438 319.4375 113.753906 315.273438 106.421875 C 314.625 105.277344 314.101562 104.746094 312.601562 105.003906 C 308.34375 105.742188 304.390625 104.402344 300.640625 102.550781 C 298.320312 101.40625 296.074219 100.078125 294.234375 98.195312 C 293.78125 97.734375 293.246094 97.300781 292.953125 96.746094 C 292.675781 96.214844 292.449219 95.488281 292.585938 94.945312 C 292.789062 94.140625 293.582031 93.816406 294.410156 93.753906 C 296.902344 93.558594 299.285156 94.265625 301.683594 94.734375 C 303.976562 95.222656 306.152344 96.019531 308.210938 97.132812 C 308.796875 97.4375 309.359375 98.167969 310.191406 97.640625 C 309.910156 97.070312 309.65625 96.484375 309.339844 95.9375 C 306.566406 91.101562 303.53125 86.433594 300.238281 81.933594 C 298.621094 79.757812 297.058594 77.527344 294.824219 75.871094 C 293.996094 75.195312 293.050781 74.867188 291.980469 74.878906 C 289.519531 74.925781 287.054688 74.867188 284.59375 74.925781 C 282.246094 74.980469 279.953125 74.835938 277.710938 74.027344 C 276.734375 73.6875 275.734375 73.460938 274.703125 73.347656 C 272.253906 73.0625 270.628906 71.851562 269.933594 69.445312 C 269.753906 68.824219 269.488281 68.222656 269.359375 67.59375 C 269.285156 67.238281 269.261719 66.710938 269.464844 66.492188 C 270.503906 65.371094 270.140625 64.589844 269.171875 63.597656 C 268.058594 62.457031 268.128906 61.875 269.085938 60.535156 C 269.828125 59.476562 270.628906 58.464844 271.488281 57.5 C 272.992188 55.851562 274.90625 55.207031 277.113281 55.5625 C 277.878906 55.683594 278.617188 55.949219 279.378906 56.082031 C 280.941406 56.351562 282.421875 56.359375 283.78125 55.234375 C 284.5625 54.59375 285.59375 54.253906 286.519531 53.796875 C 288.058594 53.0625 289.414062 52.078125 290.589844 50.84375 C 291.628906 49.742188 292.953125 49.660156 294.175781 50.191406 C 295.742188 50.871094 297.058594 51.953125 297.449219 53.792969 C 297.496094 53.914062 297.53125 54.035156 297.5625 54.164062 C 297.789062 58.675781 299.394531 63.070312 298.699219 67.660156 C 298.332031 70.058594 298.875 72.238281 300.050781 74.367188 C 301.613281 77.195312 302.972656 80.136719 304.460938 83.003906 C 304.660156 83.390625 305.125 83.636719 305.464844 83.949219 C 305.59375 83.589844 305.695312 83.222656 305.765625 82.84375 C 306.1875 79.242188 306.722656 75.675781 308.011719 72.246094 C 308.914062 69.945312 310.070312 67.78125 311.484375 65.753906 C 311.636719 65.542969 311.804688 65.347656 311.992188 65.171875 C 312.800781 64.371094 314.390625 64.847656 314.855469 66.066406 C 315.882812 68.808594 316.09375 71.613281 315.488281 74.480469 C 314.476562 79.601562 312.75 84.480469 309.871094 88.855469 C 309.140625 89.960938 309.308594 90.707031 309.878906 91.632812 C 313.757812 97.921875 317.386719 104.351562 320.683594 110.964844 C 323.460938 116.523438 326.148438 122.125 328.824219 127.734375 C 329.769531 129.71875 330.554688 131.773438 331.421875 133.792969 C 331.535156 134.019531 331.664062 134.238281 331.808594 134.449219 C 331.933594 134.097656 332.027344 133.734375 332.089844 133.367188 C 332.109375 132.976562 332.085938 132.589844 332.011719 132.203125 C 331.171875 127.089844 330.804688 121.929688 330.398438 116.761719 C 329.820312 109.375 329.898438 101.988281 329.886719 94.597656 C 329.882812 93.625 329.644531 93.035156 328.65625 92.492188 C 327.257812 91.722656 327.234375 90.441406 328.253906 89.25 C 328.984375 88.394531 330.242188 87.980469 330.253906 86.527344 C 330.257812 85.832031 330.246094 85.398438 329.613281 84.917969 C 327.644531 83.433594 327.640625 82.144531 329.476562 80.632812 C 329.667969 80.476562 329.949219 80.425781 330.148438 80.273438 C 330.257812 80.203125 330.34375 80.109375 330.40625 80 C 330.472656 79.886719 330.507812 79.765625 330.511719 79.636719 C 330.519531 79.507812 330.496094 79.386719 330.445312 79.269531 C 330.390625 79.152344 330.3125 79.050781 330.214844 78.96875 C 329.765625 78.53125 329.214844 78.171875 328.855469 77.671875 C 328.132812 76.675781 328.363281 75.722656 329.40625 75.03125 C 329.632812 74.902344 329.871094 74.808594 330.121094 74.746094 C 331.015625 74.457031 331.269531 73.761719 331.234375 72.925781 C 331.179688 72.542969 331.101562 72.164062 331.007812 71.785156 C 330.921875 71.410156 330.886719 71.027344 330.902344 70.640625 C 331.078125 69.027344 332.449219 67.777344 333.722656 68.023438 C 335.066406 68.285156 335.792969 69.820312 335.261719 71.472656 C 335.070312 72.066406 334.632812 72.578125 334.304688 73.125 C 333.363281 74.699219 333.492188 75.28125 335 76.242188 C 335.34375 76.417969 335.675781 76.617188 336 76.828125 C 336.828125 77.511719 336.617188 79.023438 335.605469 79.394531 C 335.015625 79.609375 334.339844 79.589844 333.722656 79.753906 C 333.605469 79.800781 333.503906 79.871094 333.421875 79.96875 C 333.339844 80.066406 333.285156 80.175781 333.257812 80.300781 C 333.234375 80.425781 333.238281 80.546875 333.273438 80.671875 C 333.308594 80.792969 333.375 80.898438 333.460938 80.988281 C 333.871094 81.292969 334.382812 81.453125 334.796875 81.753906 C 336.097656 82.695312 336.007812 83.957031 334.585938 84.832031 C 334.351562 84.941406 334.101562 85.007812 333.839844 85.03125 C 333.230469 85.136719 332.988281 85.542969 332.941406 86.101562 C 332.910156 86.488281 332.902344 86.878906 332.886719 87.269531 C 332.859375 88.113281 333.109375 88.589844 334.039062 88.949219 C 335.695312 89.59375 335.832031 91.203125 334.257812 92.09375 C 333.011719 92.796875 332.71875 93.664062 332.734375 94.921875 C 332.847656 102.707031 332.828125 110.496094 333.070312 118.277344 C 333.175781 121.625 333.796875 124.957031 334.195312 128.296875 C 334.546875 131.253906 334.910156 134.210938 335.285156 137.160156 C 335.3125 137.359375 335.515625 137.53125 335.640625 137.714844 C 335.839844 137.558594 336.101562 137.445312 336.226562 137.242188 C 337.527344 135.140625 338.890625 133.097656 340.757812 131.441406 C 341.050781 131.183594 341.296875 130.828125 341.636719 130.6875 C 342.089844 130.46875 342.570312 130.382812 343.074219 130.433594 C 343.625 130.53125 343.835938 131.097656 343.847656 131.636719 C 343.980469 137.695312 342.621094 143.222656 338.003906 147.519531 C 337.328125 148.148438 337.230469 148.652344 337.535156 149.511719 C 339.132812 154.023438 340.726562 158.535156 342.191406 163.089844 C 345.441406 173.183594 348.160156 183.429688 350.742188 193.710938 C 352.757812 201.734375 354.703125 209.773438 356.503906 217.847656 C 357.882812 224.023438 359.011719 230.257812 360.199219 236.476562 C 360.828125 239.777344 361.351562 243.101562 361.914062 246.414062 C 362.347656 248.960938 362.808594 251.507812 363.195312 254.0625 C 363.710938 257.511719 364.238281 260.96875 364.628906 264.4375 C 365.035156 268.039062 365.332031 271.652344 365.59375 275.269531 C 365.960938 280.308594 366.25 285.351562 366.574219 290.394531 C 366.570312 290.523438 366.601562 290.644531 366.664062 290.757812 C 366.808594 290.933594 366.992188 291.1875 367.171875 291.195312 C 367.417969 291.164062 367.59375 291.035156 367.695312 290.808594 C 368.308594 287.507812 368.902344 284.203125 369.472656 280.894531 C 370.113281 277.199219 370.679688 273.488281 371.367188 269.804688 C 372.53125 263.578125 373.753906 257.363281 374.972656 251.144531 C 376.09375 245.4375 377.25 239.734375 378.367188 234.027344 C 379.613281 227.683594 380.84375 221.339844 382.0625 214.992188 C 382.996094 210.171875 383.960938 205.355469 384.828125 200.519531 C 385.511719 196.703125 386.050781 192.859375 386.683594 189.03125 C 387.320312 185.203125 388.015625 181.386719 388.628906 177.558594 C 389.304688 173.34375 389.925781 169.121094 390.554688 164.898438 C 390.972656 162.085938 391.359375 159.269531 391.765625 156.453125 C 391.855469 155.8125 391.957031 155.171875 392.050781 154.53125 C 392.40625 152.109375 392.230469 149.992188 389.777344 148.519531 C 388.460938 147.730469 387.652344 146.28125 386.957031 144.859375 C 385.121094 141.078125 383.90625 137.160156 384.265625 132.886719 C 384.332031 132.097656 384.40625 131.292969 385.300781 130.984375 C 386.285156 130.640625 387.074219 131.039062 387.703125 131.789062 C 388.367188 132.585938 388.984375 133.417969 389.644531 134.214844 C 389.984375 134.605469 390.339844 134.980469 390.71875 135.332031 C 390.800781 135.390625 390.890625 135.398438 390.980469 135.355469 C 391.074219 135.273438 391.199219 135.121094 391.179688 135.03125 C 390.769531 133.40625 390.265625 131.796875 389.933594 130.15625 C 388.421875 122.730469 385.367188 115.882812 382.167969 109.085938 C 381.726562 108.148438 381.140625 107.28125 380.695312 106.347656 C 380.328125 105.578125 379.8125 105.265625 378.957031 105.070312 C 377.410156 104.710938 377.050781 103.980469 377.386719 102.558594 C 377.472656 102.1875 377.738281 101.863281 377.835938 101.496094 C 377.976562 100.949219 377.390625 99.996094 376.847656 100.117188 C 375.949219 100.3125 375.355469 100.105469 374.816406 99.445312 C 374.1875 98.675781 374.777344 97.988281 374.914062 97.257812 C 375.0625 96.476562 374.589844 96.007812 373.832031 96.128906 C 373.707031 96.167969 373.589844 96.21875 373.472656 96.28125 C 373.242188 96.390625 373 96.472656 372.746094 96.519531 C 372.519531 96.535156 372.300781 96.5 372.089844 96.410156 C 371.878906 96.324219 371.699219 96.191406 371.550781 96.019531 C 371.402344 95.847656 371.300781 95.648438 371.246094 95.425781 C 371.191406 95.203125 371.1875 94.984375 371.238281 94.761719 C 371.265625 94.632812 371.328125 94.515625 371.363281 94.390625 C 371.84375 92.636719 371.867188 92.5625 370.3125 92.027344 C 369.332031 91.6875 368.882812 91.042969 368.519531 90.167969 C 368.175781 89.351562 368.386719 88.632812 368.675781 87.914062 C 369.199219 86.636719 370.546875 86.332031 371.488281 87.25 C 371.765625 87.523438 372.152344 87.769531 372.269531 88.105469 C 372.835938 89.71875 373.648438 90.800781 375.632812 90.570312 C 376.316406 90.488281 376.636719 91.339844 376.542969 92.023438 C 376.394531 93.078125 376.339844 94.042969 377.109375 94.941406 C 377.570312 95.480469 377.929688 95.925781 378.683594 95.519531 C 379.511719 95.074219 380.191406 95.335938 380.71875 96.035156 C 380.921875 96.296875 381.039062 96.59375 381.0625 96.925781 C 381.085938 97.257812 381.015625 97.570312 380.851562 97.859375 C 380.660156 98.195312 380.496094 98.546875 380.359375 98.910156 C 380.304688 99.0625 380.277344 99.21875 380.285156 99.382812 C 380.292969 99.542969 380.328125 99.699219 380.398438 99.847656 C 380.46875 99.992188 380.5625 100.121094 380.683594 100.230469 C 380.804688 100.339844 380.941406 100.417969 381.09375 100.472656 C 381.457031 100.597656 381.882812 100.542969 382.234375 100.679688 C 383.230469 101.066406 383.675781 101.800781 383.195312 102.828125 C 382.683594 103.921875 382.894531 104.714844 383.402344 105.714844 C 385.871094 110.5625 388.285156 115.441406 389.984375 120.625 C 390.832031 123.203125 391.414062 125.871094 392.347656 128.410156 C 392.707031 129.378906 392.351562 130.660156 393.460938 131.339844 C 393.59375 130.335938 393.730469 129.328125 393.859375 128.324219 C 394.707031 121.734375 394.464844 115.105469 394.195312 108.511719 C 394.007812 103.988281 393.863281 99.453125 393.582031 94.933594 C 393.292969 90.289062 392.769531 85.65625 392.324219 81.019531 C 392.023438 77.925781 391.632812 74.84375 391.382812 71.746094 C 391.285156 70.507812 390.726562 69.824219 389.585938 69.570312 C 386.527344 68.890625 383.710938 67.578125 380.941406 66.1875 C 377.1875 64.273438 373.996094 61.671875 371.367188 58.378906 C 370.789062 57.667969 370.300781 56.925781 370.199219 55.96875 C 370.089844 54.894531 371.023438 53.871094 372.078125 54.007812 C 372.457031 54.070312 372.832031 54.15625 373.203125 54.265625 C 378.804688 55.75 383.730469 58.507812 388.179688 62.1875 C 388.683594 62.554688 389.214844 62.886719 389.765625 63.183594 C 389.804688 63.289062 389.855469 63.386719 389.914062 63.484375 C 389.953125 63.53125 390.042969 63.535156 390.109375 63.558594 Z M 281.621094 69.242188 C 281.566406 69.316406 281.492188 69.34375 281.402344 69.328125 C 280.078125 69.109375 278.789062 69.203125 277.511719 68.445312 C 276.234375 67.683594 274.636719 67.4375 273.171875 66.988281 C 272.726562 66.855469 272.210938 67.488281 272.308594 67.96875 C 272.59375 69.351562 273.304688 70.332031 274.742188 70.65625 C 276.496094 71.046875 278.25 71.4375 280.003906 71.808594 C 280.886719 71.992188 281.257812 71.6875 281.496094 70.574219 C 281.574219 70.207031 281.539062 69.675781 281.75 69.6875 C 283.03125 69.683594 284.121094 69.4375 285.402344 69.394531 C 285.515625 69.390625 285.640625 69.082031 285.707031 68.898438 C 285.722656 68.847656 285.535156 68.644531 285.449219 68.648438 C 284.300781 68.710938 283.148438 68.773438 282.003906 68.898438 C 281.875 68.917969 281.742188 69.078125 281.621094 69.242188 Z M 290.15625 280.464844 C 290.152344 280.691406 290.175781 280.917969 290.222656 281.140625 C 290.269531 281.285156 290.4375 281.390625 290.550781 281.511719 C 290.574219 281.296875 290.675781 281.050781 290.601562 280.878906 C 290.53125 280.714844 290.277344 280.628906 290.105469 280.507812 C 290.589844 277.71875 289.707031 275.125 288.890625 272.546875 C 288.289062 270.636719 287.203125 269.058594 285.636719 267.808594 C 285.449219 267.710938 285.246094 267.667969 285.03125 267.691406 C 284.988281 267.691406 284.882812 267.917969 284.90625 268.019531 C 285.082031 268.90625 285.242188 269.796875 285.476562 270.667969 C 286.304688 273.800781 287.300781 276.875 289 279.667969 C 289.25 280.085938 289.5 280.589844 290.152344 280.460938 Z M 287.816406 65.519531 C 287.847656 65.628906 287.890625 65.738281 287.953125 65.835938 C 287.992188 65.886719 288.105469 65.875 288.1875 65.890625 L 287.742188 65.597656 C 287.863281 65.371094 287.992188 65.152344 288.136719 64.941406 C 288.957031 63.832031 289.75 63.605469 290.667969 64.277344 C 291.289062 64.730469 291.839844 65.273438 292.421875 65.769531 C 292.523438 65.851562 292.628906 65.921875 292.738281 65.992188 C 292.824219 65.789062 293.007812 65.570312 292.976562 65.382812 C 292.789062 64.117188 292.566406 62.851562 292.339844 61.589844 C 292.25 61.101562 291.621094 60.863281 291.152344 61.136719 C 290.492188 61.527344 289.878906 62.175781 289.183594 62.277344 C 286.515625 62.65625 284.152344 64.21875 281.378906 64.179688 C 280.632812 64.167969 279.878906 64.492188 279.144531 64.71875 C 278.972656 64.769531 278.738281 65.074219 278.765625 65.214844 C 278.859375 65.457031 279.003906 65.660156 279.210938 65.820312 C 280.074219 66.667969 281.1875 66.542969 282.117188 66.222656 C 283.988281 65.578125 285.910156 65.691406 287.816406 65.519531 Z M 380.445312 19.554688 C 380.460938 19.675781 380.492188 19.796875 380.539062 19.910156 C 380.570312 19.976562 380.664062 20.007812 380.734375 20.054688 L 380.359375 19.640625 C 380.425781 19.394531 380.46875 19.140625 380.484375 18.886719 C 380.472656 17.722656 380.816406 16.894531 382.175781 16.863281 C 382.324219 16.859375 382.578125 16.550781 382.582031 16.375 C 382.589844 15.992188 382.53125 15.621094 382.40625 15.257812 C 381.820312 13.476562 381.777344 13.347656 380.066406 13.4375 C 378.335938 13.527344 376.78125 13.074219 375.253906 12.378906 C 374.554688 12.0625 373.882812 11.640625 373.152344 11.453125 C 372.289062 11.25 371.417969 11.148438 370.53125 11.148438 C 369.660156 11.136719 369.222656 12.023438 369.683594 12.792969 C 371.609375 16.003906 374.128906 18.703125 376.921875 21.164062 C 376.992188 21.226562 377.171875 21.164062 377.300781 21.160156 C 377.289062 21.414062 377.316406 21.660156 377.371094 21.90625 C 377.425781 22.050781 377.644531 22.140625 377.789062 22.253906 C 377.816406 22.023438 377.925781 21.75 377.84375 21.570312 C 377.761719 21.386719 377.484375 21.300781 377.289062 21.171875 C 377.820312 19.929688 378.664062 19.253906 380.089844 19.613281 C 380.210938 19.617188 380.328125 19.597656 380.445312 19.554688 Z M 368.570312 8.167969 C 368.496094 8.050781 368.40625 7.949219 368.300781 7.859375 C 366.164062 6.542969 365.675781 7.109375 364.886719 8.574219 C 364.828125 8.6875 364.804688 8.824219 364.734375 8.929688 C 364.03125 10.015625 363.09375 11.011719 362.679688 12.195312 C 362.171875 13.640625 363.628906 14.808594 363.78125 16.1875 C 364.121094 19.230469 365.882812 20.746094 368.742188 21.261719 C 368.867188 21.296875 368.988281 21.335938 369.109375 21.386719 C 369.96875 21.671875 369.886719 21.636719 370.257812 20.714844 C 370.71875 19.566406 370.730469 18.652344 369.820312 17.644531 C 368.878906 16.597656 368.171875 15.332031 367.402344 14.136719 C 367.039062 13.601562 366.742188 13.03125 366.507812 12.425781 C 366.019531 11.09375 366.394531 9.996094 367.597656 9.058594 C 367.792969 8.902344 368.082031 8.859375 368.273438 8.695312 C 368.402344 8.539062 368.503906 8.363281 368.570312 8.167969 Z M 388.925781 11.417969 C 388.765625 10.761719 388.636719 9.585938 388.195312 8.539062 C 387.398438 6.644531 386.417969 4.828125 385.507812 2.980469 C 385.335938 2.628906 384.492188 2.402344 384.117188 2.660156 C 383.703125 2.945312 383.214844 3.25 382.996094 3.671875 C 382.519531 4.585938 382.296875 5.632812 381.785156 6.519531 C 381.015625 7.863281 380.089844 9.121094 379.238281 10.417969 C 379.199219 10.515625 379.207031 10.605469 379.265625 10.695312 C 379.347656 10.78125 379.492188 10.894531 379.585938 10.875 C 380.210938 10.734375 380.820312 10.503906 381.453125 10.414062 C 382.835938 10.21875 383.671875 10.71875 384.199219 11.996094 C 384.394531 12.476562 384.53125 12.976562 384.703125 13.464844 C 384.820312 13.835938 384.957031 14.195312 385.109375 14.550781 C 385.246094 14.800781 385.402344 15.042969 385.574219 15.269531 C 385.644531 15.023438 385.722656 14.78125 385.777344 14.53125 C 386.167969 12.730469 386.167969 12.703125 388.230469 12.925781 C 388.53125 12.960938 388.683594 13.074219 388.746094 12.683594 C 388.785156 12.429688 388.816406 12.175781 388.925781 11.417969 Z M 295.546875 60.195312 C 295.289062 58.28125 295.03125 56.367188 294.773438 54.453125 C 294.765625 54.316406 294.722656 54.199219 294.640625 54.089844 C 294.203125 53.632812 293.738281 53.207031 293.242188 52.816406 C 292.644531 52.386719 292.292969 52.996094 291.964844 53.304688 C 290.632812 54.550781 289.132812 55.546875 287.46875 56.289062 C 286.648438 56.667969 285.851562 57.09375 285.082031 57.5625 C 283.679688 58.347656 282.648438 59.472656 281.980469 60.933594 C 281.933594 61.03125 281.933594 61.132812 281.972656 61.234375 C 282.042969 61.332031 282.203125 61.460938 282.28125 61.433594 C 285.25 60.425781 288.71875 60.46875 290.734375 57.429688 C 290.90625 57.234375 291.101562 57.066406 291.316406 56.925781 C 291.578125 56.722656 291.871094 56.632812 292.203125 56.648438 C 292.53125 56.667969 292.8125 56.792969 293.050781 57.023438 C 294.0625 57.929688 294.382812 59.199219 294.882812 60.378906 C 294.929688 60.488281 295.210938 60.519531 295.386719 60.527344 C 295.4375 60.527344 295.492188 60.3125 295.546875 60.195312 Z M 289.460938 262.808594 C 289.453125 264.722656 289.039062 266.71875 290.015625 268.5 C 291.429688 271.121094 292.347656 273.90625 292.769531 276.855469 C 292.894531 277.0625 293.074219 277.164062 293.316406 277.164062 C 293.542969 277.054688 293.6875 276.875 293.75 276.628906 C 293.824219 276.25 293.839844 275.863281 293.804688 275.476562 C 293.632812 273.300781 293.382812 271.125 293.277344 268.945312 C 293.109375 265.519531 291.804688 262.46875 290.332031 259.464844 C 290.234375 259.265625 289.925781 259.175781 289.714844 259.035156 C 289.597656 259.25 289.515625 259.480469 289.472656 259.722656 C 289.445312 260.75 289.460938 261.78125 289.460938 262.808594 Z M 306.398438 203.757812 L 306.417969 203.757812 C 306.417969 204.277344 306.402344 204.796875 306.421875 205.3125 C 306.542969 208.335938 307.332031 211.175781 308.789062 213.824219 C 308.921875 214.027344 309.109375 214.132812 309.355469 214.132812 C 309.5625 214.074219 309.726562 213.816406 309.886719 213.628906 C 309.96875 213.523438 310.019531 213.40625 310.039062 213.273438 C 310.394531 211.207031 310.328125 209.152344 309.832031 207.113281 C 309.339844 205.074219 308.464844 203.21875 307.203125 201.539062 C 307.136719 201.449219 306.929688 201.34375 306.871094 201.378906 C 306.691406 201.488281 306.433594 201.65625 306.417969 201.820312 C 306.367188 202.460938 306.398438 203.113281 306.398438 203.757812 Z M 312.828125 201.351562 L 312.804688 201.351562 C 312.804688 200.835938 312.792969 200.320312 312.808594 199.808594 C 312.898438 197.1875 312.347656 194.707031 311.160156 192.371094 C 311.070312 192.191406 310.820312 192.097656 310.644531 191.964844 C 310.558594 192.0625 310.492188 192.171875 310.4375 192.289062 C 310.332031 192.660156 310.269531 193.039062 310.164062 193.410156 C 309.226562 196.734375 308.988281 199.984375 311.214844 202.960938 C 311.285156 203.070312 311.339844 203.1875 311.386719 203.304688 C 311.707031 203.996094 312.023438 204.683594 312.339844 205.375 C 313.019531 204.648438 312.738281 203.734375 312.816406 202.894531 C 312.863281 202.382812 312.828125 201.863281 312.828125 201.351562 Z M 279.707031 59.214844 C 279.472656 58.949219 279.351562 58.667969 279.199219 58.65625 C 278.050781 58.542969 276.898438 58.464844 275.746094 58.410156 C 275.289062 58.375 274.851562 58.449219 274.429688 58.632812 C 274.007812 58.816406 273.652344 59.085938 273.363281 59.441406 C 272.871094 60.027344 272.4375 60.65625 271.972656 61.265625 C 271.625 61.730469 271.542969 62.199219 272.0625 62.574219 C 272.894531 63.171875 273.742188 63.746094 274.609375 64.292969 C 274.738281 64.375 275.15625 64.285156 275.183594 64.191406 C 275.609375 62.84375 276.695312 62.257812 277.804688 61.550781 C 278.605469 61.039062 279.082031 60.011719 279.707031 59.214844 Z M 379.566406 4.617188 C 379.320312 4.425781 379.050781 4.035156 378.792969 4.042969 C 376.578125 4.105469 374.601562 5.0625 372.589844 5.851562 C 372.089844 6.046875 371.757812 7.390625 371.960938 7.964844 C 372.164062 8.535156 372.675781 8.59375 373.175781 8.722656 C 373.792969 8.878906 374.371094 9.222656 374.992188 9.3125 C 375.5 9.398438 375.976562 9.3125 376.421875 9.050781 C 377.953125 7.917969 379.003906 6.4375 379.566406 4.617188 Z M 379.566406 4.617188 " fill-opacity="1" fill-rule="nonzero"/></g><path fill="#000000" d="M 335.941406 53.382812 C 335.992188 54.230469 335.144531 55.1875 334.371094 55.160156 C 333.71875 55.140625 332.96875 54.398438 332.890625 53.703125 C 332.804688 52.96875 333.402344 52.066406 334.035156 51.972656 C 334.8125 51.855469 335.898438 52.660156 335.941406 53.382812 Z M 335.941406 53.382812 " fill-opacity="1" fill-rule="nonzero"/><path fill="#000000" d="M 370.898438 79.34375 C 370.042969 79.269531 369.375 78.320312 369.535156 77.402344 C 369.679688 76.601562 370.445312 75.96875 371.105469 76.109375 C 371.949219 76.289062 372.566406 76.921875 372.578125 77.621094 C 372.589844 78.492188 371.695312 79.414062 370.898438 79.34375 Z M 370.898438 79.34375 " fill-opacity="1" fill-rule="nonzero"/><path fill="#000000" d="M 330.195312 62.914062 C 330.132812 63.621094 329.375 64.445312 328.726562 64.503906 C 328.082031 64.566406 327.390625 63.71875 327.421875 62.910156 C 327.457031 62.078125 328.113281 61.546875 328.988281 61.65625 C 329.601562 61.734375 330.238281 62.398438 330.195312 62.914062 Z M 330.195312 62.914062 " fill-opacity="1" fill-rule="nonzero"/><path fill="#000000" d="M 367.925781 64.808594 C 368.121094 64.8125 368.304688 64.851562 368.484375 64.925781 C 368.664062 65 368.820312 65.105469 368.960938 65.238281 C 369.097656 65.375 369.207031 65.527344 369.289062 65.707031 C 369.367188 65.882812 369.414062 66.066406 369.421875 66.257812 C 369.449219 66.800781 368.710938 67.605469 368.242188 67.550781 C 367.601562 67.46875 366.730469 66.625 366.660156 66.015625 C 366.601562 65.527344 367.363281 64.800781 367.925781 64.808594 Z M 367.925781 64.808594 " fill-opacity="1" fill-rule="nonzero"/><path fill="#000000" d="M 332.945312 47.710938 C 332.78125 48.320312 332.183594 48.621094 331.488281 48.417969 C 330.957031 48.261719 330.652344 47.894531 330.765625 47.335938 C 330.832031 47.019531 330.992188 46.765625 331.246094 46.570312 C 331.5 46.375 331.789062 46.289062 332.109375 46.304688 C 332.675781 46.359375 333.113281 47.089844 332.945312 47.710938 Z M 332.945312 47.710938 " fill-opacity="1" fill-rule="nonzero"/><path fill="#000000" d="M 363.214844 81.179688 C 362.476562 81.191406 361.839844 80.632812 361.925781 80.113281 C 362 79.804688 362.15625 79.550781 362.390625 79.34375 C 362.625 79.132812 362.902344 79.011719 363.210938 78.976562 C 363.765625 78.972656 364.210938 79.613281 364.144531 80.3125 C 364.085938 80.914062 363.6875 81.125 363.214844 81.179688 Z M 363.214844 81.179688 " fill-opacity="1" fill-rule="nonzero"/><path fill="#000000" d="M 366.925781 73.757812 C 366.871094 74.335938 366.097656 74.90625 365.523438 74.765625 C 365.265625 74.710938 365.058594 74.574219 364.90625 74.355469 C 364.757812 74.136719 364.699219 73.894531 364.738281 73.632812 C 364.765625 73.109375 364.992188 72.636719 365.648438 72.621094 C 366.296875 72.609375 366.976562 73.21875 366.925781 73.757812 Z M 366.925781 73.757812 " fill-opacity="1" fill-rule="nonzero"/><path fill="#000000" d="M 327.089844 54.53125 C 327.863281 54.542969 328.3125 55.042969 328.21875 55.503906 C 328.105469 56.078125 327.683594 56.273438 327.167969 56.265625 C 326.679688 56.257812 326.101562 55.632812 326.300781 55.316406 C 326.527344 55.015625 326.789062 54.753906 327.089844 54.53125 Z M 327.089844 54.53125 " fill-opacity="1" fill-rule="nonzero"/></svg>