<svg xmlns="http://www.w3.org/2000/svg" xmlns:xlink="http://www.w3.org/1999/xlink" width="1000" zoomAndPan="magnify" viewBox="0 0 750 749.999995" height="1000" preserveAspectRatio="xMidYMid meet" version="1.0"><defs><clipPath id="cd6517ef5d"><path d="M 185.113281 37.5 L 599.113281 37.5 L 599.113281 712.5 L 185.113281 712.5 Z M 185.113281 37.5 " clip-rule="nonzero"/></clipPath></defs><g clip-path="url(#cd6517ef5d)"><path fill="currentColor" d="M 346.429688 38.816406 C 360.113281 35.527344 374.894531 38.539062 386.9375 45.664062 C 394.054688 49.496094 400.078125 54.699219 405.550781 60.453125 C 417.046875 72.230469 425.257812 86.746094 430.457031 102.359375 C 439.21875 91.953125 450.167969 83.460938 461.386719 76.339844 C 479.453125 65.382812 499.707031 57.714844 521.058594 57.714844 C 533.101562 57.441406 545.691406 60.179688 555 68.394531 C 564.03125 75.515625 568.957031 86.746094 570.875 97.976562 C 571.96875 106.195312 571.96875 114.410156 570.601562 122.628906 C 579.632812 125.640625 589.214844 129.203125 594.960938 137.144531 C 600.433594 144.265625 600.160156 154.675781 595.507812 162.070312 C 590.582031 170.5625 581.824219 175.765625 573.335938 180.148438 C 564.304688 184.53125 554.726562 188.363281 545.144531 191.101562 C 538.027344 204.523438 530.363281 217.945312 521.058594 229.722656 C 514.488281 238.488281 507.644531 246.707031 500.257812 254.648438 C 479.453125 275.464844 456.460938 294.636719 429.363281 306.964844 C 416.226562 313.261719 401.992188 316.277344 387.484375 317.097656 C 394.054688 337.367188 393.234375 359.277344 392.414062 380.367188 C 389.949219 417.894531 383.378906 455.144531 377.085938 492.394531 C 370.242188 533.753906 362.851562 574.835938 357.378906 616.46875 C 354.640625 635.644531 353.269531 654.816406 351.082031 674.261719 C 349.988281 684.398438 348.890625 694.804688 346.15625 704.667969 C 345.605469 707.132812 344.785156 709.324219 343.144531 711.238281 C 341.773438 712.609375 339.859375 712.609375 337.941406 712.335938 C 335.480469 707.953125 337.121094 703.023438 337.121094 698.367188 C 338.21875 685.765625 341.5 673.167969 338.765625 660.570312 C 336.027344 645.777344 327.542969 632.355469 316.867188 621.675781 C 305.371094 610.171875 291.6875 601.40625 279.09375 591.273438 C 266.777344 581.410156 255.007812 571.003906 244.332031 559.226562 C 230.648438 543.613281 218.605469 526.355469 210.117188 507.183594 C 203.550781 491.296875 199.171875 474.316406 197.800781 457.335938 C 196.980469 446.105469 196.433594 434.601562 199.71875 423.917969 C 200.265625 421.453125 203.003906 420.632812 205.191406 420.632812 C 215.320312 420.085938 225.445312 423.097656 235.027344 426.65625 C 248.4375 431.585938 260.753906 438.984375 271.976562 448.023438 C 298.527344 469.386719 318.507812 497.871094 330.828125 529.644531 C 337.121094 546.351562 342.324219 563.332031 345.605469 580.589844 C 348.070312 592.914062 349.988281 605.242188 351.628906 617.566406 C 357.101562 574.5625 364.765625 532.109375 371.882812 489.378906 C 377.90625 452.679688 384.476562 415.976562 386.9375 378.726562 C 387.757812 357.910156 388.308594 336.269531 381.464844 316.277344 C 367.503906 316 354.367188 309.703125 343.144531 302.03125 C 332.742188 294.910156 323.984375 285.871094 313.855469 278.476562 C 293.875 278.476562 273.621094 278.75 253.640625 277.109375 C 240.5 276.285156 227.089844 274.644531 214.222656 270.535156 C 205.191406 267.523438 195.886719 263.140625 190.136719 255.195312 C 184.664062 248.074219 183.019531 236.84375 189.042969 229.449219 C 195.613281 221.230469 206.835938 219.316406 216.6875 219.863281 C 229.277344 220.957031 241.597656 223.699219 253.367188 228.078125 C 244.332031 220.136719 235.574219 212.195312 227.636719 203.15625 C 215.320312 188.914062 204.097656 172.753906 199.71875 153.851562 C 196.433594 140.15625 196.433594 124.820312 203.277344 111.945312 C 207.929688 103.457031 217.234375 97.976562 226.816406 97.15625 C 248.4375 94.964844 270.335938 102.90625 287.03125 116.328125 C 289.496094 101.265625 294.421875 86.199219 302.359375 73.050781 C 311.941406 56.617188 327.542969 42.921875 346.429688 38.816406 Z M 337.121094 47.578125 C 320.152344 55.796875 307.835938 71.957031 300.71875 89.210938 C 296.066406 99.074219 293.601562 110.027344 291.960938 120.710938 C 306.191406 133.859375 317.140625 150.292969 325.625 167.546875 C 330.554688 176.859375 334.933594 186.722656 337.667969 197.128906 C 340.679688 206.714844 342.324219 216.851562 341.5 226.710938 C 341.5 229.722656 340.40625 232.460938 339.3125 235.203125 C 342.871094 237.117188 346.703125 238.761719 350.808594 239.035156 C 356.828125 240.132812 363.945312 238.214844 367.230469 233.011719 C 359.566406 216.300781 352.996094 198.773438 350.535156 180.421875 C 349.714844 171.65625 348.890625 162.34375 351.628906 153.851562 C 352.722656 150.566406 356.007812 146.457031 359.839844 148.101562 C 364.492188 150.019531 366.136719 155.222656 367.777344 159.332031 C 371.335938 171.382812 371.882812 183.707031 372.429688 196.035156 C 373.253906 206.167969 373.253906 216.574219 372.703125 226.710938 C 372.703125 228.355469 372.15625 230.269531 371.882812 231.914062 C 374.621094 235.75 377.359375 239.859375 381.738281 242.597656 C 386.664062 245.609375 392.960938 245.0625 398.160156 242.597656 C 403.910156 240.132812 409.109375 236.84375 414.308594 233.558594 C 422.519531 219.316406 425.804688 202.882812 433.46875 188.363281 C 441.40625 171.929688 454.273438 157.960938 468.777344 146.730469 C 496.148438 126.460938 531.1875 115.507812 565.125 121.257812 C 567.863281 106.195312 565.949219 88.9375 555.546875 76.886719 C 549.25 68.945312 539.671875 64.835938 529.816406 63.464844 C 511.75 61.546875 493.960938 66.203125 477.8125 73.601562 C 460.566406 82.089844 444.691406 93.867188 432.375 108.386719 C 437.027344 126.738281 437.027344 147.277344 427.996094 164.261719 C 425.53125 168.917969 420.878906 174.121094 415.128906 171.929688 C 410.203125 169.191406 409.382812 162.617188 409.382812 157.414062 C 408.835938 139.609375 415.679688 121.804688 426.351562 107.835938 C 421.425781 92.773438 414.035156 78.257812 403.359375 66.480469 C 396.246094 58.261719 387.757812 51.6875 377.90625 47.304688 C 365.316406 41.554688 349.988281 41.28125 337.121094 47.578125 Z M 216.140625 106.195312 C 209.570312 110.300781 206.011719 117.699219 204.371094 125.09375 C 201.359375 139.335938 204.371094 154.125 210.390625 167.273438 C 220.792969 188.914062 237.214844 206.988281 255.554688 222.328125 C 260.480469 225.613281 264.585938 229.996094 269.789062 233.285156 C 283.199219 238.761719 297.707031 242.046875 312.214844 241.773438 C 318.785156 241.5 325.625 240.679688 330.828125 236.84375 C 326.996094 233.558594 323.4375 229.996094 320.152344 225.886719 C 308.929688 212.195312 299.625 196.582031 293.328125 179.875 C 286.484375 161.796875 284.296875 142.074219 286.210938 122.902344 C 273.621094 111.945312 257.746094 104.550781 241.046875 102.632812 C 232.5625 101.8125 223.53125 101.8125 216.140625 106.195312 Z M 414.855469 154.675781 C 415.128906 159.058594 414.582031 163.988281 418.140625 167.273438 C 420.605469 165.628906 422.519531 163.164062 423.890625 160.425781 C 430.457031 146.183594 431.007812 130.023438 428.269531 114.960938 C 420.058594 126.738281 415.40625 140.707031 414.855469 154.675781 Z M 507.371094 132.214844 C 489.035156 138.789062 472.335938 149.195312 458.652344 162.890625 C 447.429688 173.847656 439.21875 187.542969 433.46875 202.058594 C 429.636719 211.371094 427.175781 221.230469 421.972656 229.722656 C 448.523438 216.027344 476.167969 204.523438 504.910156 196.308594 C 516.953125 192.472656 529.269531 190.007812 541.3125 186.722656 C 544.050781 182.339844 545.964844 177.683594 548.15625 173.300781 C 555 158.507812 561.566406 143.171875 564.578125 127.011719 C 545.417969 122.902344 525.4375 125.640625 507.371094 132.214844 Z M 569.78125 128.652344 C 565.671875 148.101562 558.285156 166.726562 548.976562 184.253906 C 561.839844 179.597656 575.253906 174.667969 585.65625 165.355469 C 591.675781 160.152344 595.78125 151.113281 592.222656 143.445312 C 587.84375 135.226562 578.539062 130.84375 569.78125 128.652344 Z M 291.410156 128.378906 C 290.589844 140.15625 291.410156 152.210938 294.148438 163.4375 C 298.800781 182.613281 307.835938 200.140625 319.332031 216.027344 C 323.984375 221.507812 328.363281 227.53125 334.109375 232.1875 C 336.847656 228.355469 336.300781 223.148438 336.300781 218.492188 C 335.207031 203.429688 329.457031 189.460938 323.4375 175.765625 C 314.953125 158.507812 305.644531 141.527344 291.410156 128.378906 Z M 355.460938 165.355469 C 355.1875 175.492188 357.101562 185.625 359.292969 195.210938 C 361.210938 203.429688 364.492188 210.824219 367.230469 218.492188 C 367.777344 202.605469 366.957031 186.722656 364.765625 171.109375 C 363.398438 164.808594 362.304688 158.507812 358.746094 153.304688 C 355.734375 156.59375 355.734375 161.25 355.460938 165.355469 Z M 514.488281 199.59375 C 496.148438 204.25 478.085938 210.550781 460.566406 217.671875 C 445.785156 223.699219 431.28125 231.09375 417.046875 238.761719 C 413.488281 244.238281 409.929688 249.71875 406.644531 255.46875 C 405.003906 258.207031 403.359375 261.769531 405.550781 264.507812 C 408.015625 267.523438 412.394531 267.246094 415.679688 266.972656 C 423.070312 265.605469 430.183594 263.414062 436.753906 260.398438 C 453.449219 252.730469 469.050781 242.871094 484.105469 232.1875 C 496.148438 223.972656 507.921875 214.933594 519.414062 205.347656 C 522.972656 202.332031 527.078125 199.59375 529.816406 195.757812 C 524.890625 197.128906 519.691406 197.949219 514.488281 199.59375 Z M 502.71875 225.886719 C 489.855469 235.203125 476.988281 244.789062 463.03125 252.730469 C 450.714844 260.125 437.847656 266.972656 423.890625 270.808594 C 418.140625 272.179688 411.847656 273.273438 406.097656 271.355469 C 401.171875 269.710938 398.160156 264.234375 399.253906 259.03125 C 400.625 253.550781 404.183594 248.894531 407.191406 244.238281 C 400.898438 247.527344 393.507812 251.085938 385.84375 249.992188 C 379 249.445312 373.800781 243.964844 369.96875 238.761719 C 367.503906 240.953125 364.765625 242.871094 361.757812 243.691406 C 352.996094 246.429688 343.691406 243.964844 335.753906 239.859375 C 331.375 243.691406 325.898438 245.609375 320.152344 246.707031 C 307.011719 248.621094 293.601562 246.429688 280.738281 243.144531 C 293.328125 252.457031 304.824219 263.140625 316.867188 273.273438 C 331.921875 274.09375 347.523438 275.738281 361.210938 282.859375 C 372.429688 288.886719 380.644531 299.566406 385.296875 311.070312 C 402.265625 311.34375 418.960938 306.6875 433.742188 298.746094 C 447.15625 291.898438 459.199219 283.40625 470.96875 273.820312 C 486.023438 261.222656 500.257812 247.253906 512.574219 231.914062 C 520.785156 222.054688 527.902344 211.097656 534.195312 199.59375 C 524.070312 208.90625 513.394531 217.125 502.71875 225.886719 Z M 194.515625 232.1875 C 190.410156 235.75 190.136719 241.773438 191.78125 246.707031 C 193.96875 253.550781 199.992188 258.207031 206.558594 261.222656 C 219.699219 267.523438 234.480469 269.988281 249.261719 271.355469 C 268.695312 272.726562 288.402344 273.273438 307.835938 272.726562 C 294.96875 261.496094 281.285156 250.265625 267.597656 239.582031 C 251.449219 232.734375 234.480469 226.984375 216.960938 225.613281 C 209.023438 225.066406 200.265625 226.164062 194.515625 232.1875 Z M 323.4375 279.300781 C 332.195312 286.148438 340.679688 293.542969 349.988281 299.839844 C 358.746094 305.59375 368.597656 309.429688 379 310.796875 C 375.714844 303.949219 371.335938 297.375 365.042969 292.445312 C 353.546875 282.859375 337.941406 280.394531 323.4375 279.300781 Z M 206.285156 426.109375 C 209.570312 434.054688 213.949219 441.449219 218.878906 448.570312 C 239.40625 476.78125 266.230469 499.242188 288.949219 525.535156 C 298.800781 536.21875 307.289062 547.996094 315.5 560.046875 C 324.53125 574.015625 331.921875 589.082031 337.394531 604.964844 C 341.226562 616.746094 345.058594 628.796875 346.703125 641.121094 C 346.976562 634.820312 346.703125 628.796875 346.429688 622.496094 C 343.144531 588.257812 335.480469 554.019531 321.519531 522.25 C 307.011719 489.378906 283.199219 460.347656 252.542969 441.175781 C 238.585938 432.957031 222.710938 426.65625 206.285156 426.109375 Z M 217.507812 509.375 C 224.625 524.441406 233.933594 538.410156 244.605469 550.734375 C 253.09375 561.417969 263.492188 570.457031 273.621094 579.492188 C 287.578125 591.546875 302.90625 601.679688 316.59375 613.730469 C 328.089844 624.414062 337.941406 637.285156 342.324219 652.351562 C 342.324219 649.613281 342.324219 646.875 341.773438 644.410156 C 339.039062 628.523438 334.933594 612.910156 328.636719 598.121094 C 316.320312 566.347656 294.96875 539.230469 271.429688 514.855469 C 247.34375 489.378906 220.246094 465.277344 203.277344 434.054688 C 201.085938 459.800781 206.558594 486.09375 217.507812 509.375 Z M 217.507812 509.375 " fill-opacity="1" fill-rule="evenodd"/></g><path fill="currentColor" d="M 375.988281 160.152344 C 377.085938 156.042969 378.726562 150.839844 383.378906 149.746094 C 387.484375 148.921875 390.222656 152.757812 391.863281 156.042969 C 395.421875 163.4375 397.066406 171.65625 397.339844 179.875 C 397.886719 190.007812 397.066406 200.140625 394.328125 210.003906 C 393.234375 213.5625 391.863281 218.21875 387.757812 219.042969 C 381.738281 217.398438 379.546875 211.371094 377.632812 206.167969 C 372.980469 191.378906 372.703125 175.21875 375.988281 160.152344 Z M 384.199219 155.496094 C 381.464844 159.878906 380.644531 165.628906 379.820312 170.835938 C 378.453125 183.980469 379.820312 197.402344 385.023438 209.453125 C 385.570312 210.277344 386.664062 213.289062 387.757812 211.644531 C 389.402344 208.359375 389.949219 204.523438 390.769531 200.964844 C 392.6875 188.089844 392.6875 174.667969 388.855469 162.34375 C 388.03125 159.605469 386.9375 156.867188 384.199219 155.496094 Z M 384.199219 155.496094 " fill-opacity="1" fill-rule="evenodd"/><path fill="currentColor" d="M 535.566406 393.789062 C 542.132812 392.96875 548.976562 392.144531 555.546875 393.789062 C 560.472656 395.433594 562.9375 401.183594 561.839844 406.113281 C 559.652344 418.441406 551.167969 428.574219 543.777344 438.433594 C 522.972656 462.539062 498.339844 483.082031 473.707031 502.800781 C 461.386719 512.664062 448.523438 521.976562 435.386719 530.738281 C 426.625 536.492188 418.140625 542.242188 408.835938 546.625 C 403.632812 549.363281 398.160156 551.554688 392.414062 551.28125 C 388.308594 550.734375 384.75 547.722656 383.652344 543.613281 C 381.464844 535.945312 384.476562 528.273438 386.9375 520.878906 C 399.804688 488.558594 423.070312 461.71875 449.34375 439.53125 C 471.242188 422 494.78125 406.113281 521.605469 397.351562 C 526.257812 395.980469 530.910156 394.609375 535.566406 393.789062 Z M 541.585938 398.71875 C 522.425781 401.183594 504.636719 409.128906 487.9375 418.714844 C 459.746094 435.96875 434.015625 457.882812 414.035156 484.449219 C 406.097656 495.679688 398.707031 507.457031 393.234375 520.332031 C 390.769531 526.632812 388.308594 533.203125 388.855469 540.050781 C 388.855469 542.242188 389.949219 544.707031 392.140625 545.53125 C 395.421875 546.078125 398.707031 544.984375 401.71875 543.886719 C 410.203125 540.328125 418.140625 535.394531 425.804688 530.464844 C 456.460938 510.195312 485.203125 487.464844 512.027344 462.8125 C 522.699219 452.953125 533.101562 442.816406 541.859375 431.585938 C 547.882812 423.917969 553.628906 416.25 556.09375 406.9375 C 556.914062 404.199219 556.640625 400.636719 553.902344 399.265625 C 550.070312 397.898438 545.691406 398.171875 541.585938 398.71875 Z M 541.585938 398.71875 " fill-opacity="1" fill-rule="evenodd"/></svg>