<svg xmlns="http://www.w3.org/2000/svg" xmlns:xlink="http://www.w3.org/1999/xlink" width="1000" zoomAndPan="magnify" viewBox="0 0 750 749.999995" height="1000" preserveAspectRatio="xMidYMid meet" version="1.0"><defs><clipPath id="9003b8f078"><path d="M 151 96 L 599.4375 96 L 599.4375 750 L 151 750 Z M 151 96 " clip-rule="nonzero"/></clipPath></defs><g clip-path="url(#9003b8f078)"><path fill="currentColor" d="M 597.027344 101.449219 C 539.546875 97.832031 489.929688 128.238281 448.175781 192.664062 L 448.152344 192.699219 C 429.589844 220.191406 412.097656 252.984375 395.679688 291.070312 L 395.730469 290.941406 C 327.761719 481.199219 283.722656 591.921875 263.617188 623.101562 L 263.710938 622.941406 C 231.804688 683.308594 195.390625 725.457031 154.464844 749.394531 C 153.433594 749.996094 152.109375 749.652344 151.507812 748.621094 C 150.90625 747.59375 151.25 746.269531 152.28125 745.667969 C 192.496094 722.144531 228.367188 680.566406 259.890625 620.925781 C 259.917969 620.871094 259.949219 620.816406 259.984375 620.765625 C 279.910156 589.859375 323.800781 479.4375 391.660156 289.492188 C 391.675781 289.445312 391.691406 289.40625 391.710938 289.363281 C 408.234375 251.027344 425.855469 218 444.570312 190.285156 L 444.546875 190.316406 C 487.21875 124.476562 538.132812 93.417969 597.300781 97.136719 C 598.492188 97.214844 599.398438 98.238281 599.320312 99.429688 C 599.246094 100.621094 598.21875 101.523438 597.027344 101.449219 Z M 597.027344 101.449219 " fill-opacity="1" fill-rule="nonzero"/></g><path fill="currentColor" d="M 174.386719 733.898438 C 178.273438 730.832031 184.511719 723.605469 189.796875 716.011719 C 195.085938 708.417969 199.449219 700.589844 203.074219 692.730469 C 206.699219 684.867188 209.613281 677.046875 211.84375 669.359375 C 214.074219 661.667969 215.652344 654.183594 216.558594 647.890625 C 217.46875 641.59375 218.046875 636.257812 218.5 630.835938 C 218.949219 625.410156 219.269531 619.902344 219.441406 614.304688 C 219.613281 608.707031 219.628906 603.023438 219.484375 597.246094 C 219.335938 591.46875 219.019531 585.601562 218.675781 581.210938 C 218.332031 576.820312 218.078125 573.972656 217.796875 571.136719 C 217.515625 568.296875 217.203125 565.464844 216.851562 562.644531 C 216.5 559.824219 216.097656 557.015625 215.640625 554.222656 C 215.183594 551.429688 214.660156 548.648438 213.238281 541.984375 C 211.820312 535.316406 209.730469 525.535156 207.917969 516.929688 C 206.105469 508.320312 204.5625 500.890625 203.296875 494.628906 C 202.027344 488.367188 201.035156 483.28125 200.3125 479.371094 C 199.589844 475.460938 199.144531 472.734375 198.789062 469.765625 C 198.433594 466.800781 198.015625 462.773438 197.660156 458.71875 C 197.300781 454.664062 197.019531 450.585938 196.835938 446.484375 C 196.648438 442.382812 196.574219 438.257812 196.625 434.109375 C 196.679688 429.957031 196.875 425.78125 197.574219 418.652344 C 198.273438 411.519531 199.839844 401.695312 202.097656 392.226562 C 204.355469 382.757812 207.296875 373.644531 210.910156 364.878906 C 214.523438 356.117188 218.804688 347.699219 223.738281 339.632812 C 228.675781 331.566406 234.265625 323.84375 239.210938 317.675781 C 244.160156 311.507812 247.621094 307.054688 245.007812 309.261719 C 242.398438 311.46875 241.257812 314.863281 240.335938 318.355469 C 239.414062 321.851562 238.710938 325.445312 238.214844 329.144531 C 237.722656 332.84375 237.441406 336.644531 237.367188 340.542969 C 237.292969 344.445312 237.425781 348.425781 237.515625 350.15625 C 237.609375 351.886719 237.71875 353.675781 237.859375 355.53125 C 238 357.386719 238.179688 359.308594 238.410156 361.289062 C 238.640625 363.273438 238.933594 365.316406 239.292969 367.417969 C 239.65625 369.515625 240.097656 371.667969 242.542969 383.097656 C 244.984375 394.527344 247.117188 404.757812 248.933594 413.789062 C 250.75 422.820312 252.257812 430.65625 253.460938 437.292969 C 254.660156 443.929688 255.558594 449.367188 256.152344 453.601562 C 256.742188 457.832031 257.035156 460.851562 257.4375 467.269531 C 257.839844 473.683594 258.117188 480.039062 258.265625 486.328125 C 258.414062 492.617188 258.417969 498.84375 258.265625 505.003906 C 258.113281 511.164062 257.796875 517.265625 257.304688 523.300781 C 256.8125 529.339844 256.132812 535.304688 255.027344 542.003906 C 253.917969 548.703125 252.359375 555.847656 250.378906 563.457031 C 248.394531 571.0625 246.003906 579.136719 243.234375 587.683594 C 240.464844 596.234375 237.335938 605.265625 233.871094 614.789062 C 230.40625 624.308594 226.632812 634.324219 225.390625 637.121094 C 224.152344 639.921875 222.632812 642.898438 220.925781 646.042969 C 219.21875 649.1875 217.402344 652.496094 215.566406 655.957031 C 213.734375 659.417969 211.960938 663.027344 210.347656 666.789062 C 208.730469 670.550781 207.367188 674.410156 205.304688 679.824219 C 203.238281 685.238281 200.535156 691.148438 197.246094 697.3125 C 193.953125 703.472656 190.121094 709.675781 185.859375 715.699219 C 181.597656 721.722656 177.007812 727.425781 173.71875 731.808594 C 170.429688 736.191406 170.429688 736.191406 172.964844 733.578125 C 172.964844 733.578125 179.0625 729.292969 183.910156 723.535156 C 188.753906 717.777344 193.003906 711.546875 196.734375 705.214844 C 200.464844 698.878906 203.632812 692.640625 206.183594 686.75 C 208.730469 680.859375 210.609375 675.554688 212.023438 671.824219 C 213.441406 668.09375 215.070312 664.492188 216.835938 661 C 218.597656 657.511719 220.417969 654.136719 222.207031 650.878906 C 223.996094 647.625 225.675781 644.488281 227.15625 641.472656 C 228.636719 638.453125 229.839844 635.558594 233.523438 625.675781 C 237.210938 615.796875 240.578125 606.40625 243.605469 597.496094 C 246.628906 588.582031 249.292969 580.140625 251.566406 572.152344 C 253.84375 564.167969 255.707031 556.625 257.136719 549.523438 C 258.570312 542.417969 259.542969 535.75 260.167969 529.675781 C 260.789062 523.601562 261.226562 517.476562 261.492188 511.292969 C 261.753906 505.109375 261.855469 498.871094 261.800781 492.570312 C 261.75 486.269531 261.554688 479.910156 261.230469 473.492188 C 260.90625 467.074219 260.460938 460.585938 260.058594 457.058594 C 259.65625 453.527344 258.953125 448.832031 257.949219 442.957031 C 256.945312 437.078125 255.636719 430.015625 254.023438 421.761719 C 252.40625 413.511719 250.480469 404.0625 248.246094 393.421875 C 246.007812 382.78125 243.460938 370.949219 243.058594 368.882812 C 242.65625 366.8125 242.332031 364.800781 242.066406 362.835938 C 241.804688 360.875 241.597656 358.964844 241.4375 357.105469 C 241.273438 355.25 241.148438 353.449219 241.046875 351.707031 C 240.945312 349.960938 240.859375 348.292969 240.796875 344.433594 C 240.734375 340.574219 240.871094 336.832031 241.210938 333.199219 C 241.550781 329.566406 242.09375 326.039062 242.84375 322.617188 C 243.589844 319.195312 244.539062 315.882812 245.699219 312.667969 C 246.859375 309.457031 245.714844 304.195312 241.671875 309.183594 C 237.625 314.167969 231.53125 321.761719 226.058594 329.746094 C 220.589844 337.726562 215.78125 346.066406 211.644531 354.761719 C 207.507812 363.453125 204.054688 372.503906 201.289062 381.910156 C 198.527344 391.3125 196.460938 401.070312 195.105469 411.171875 C 193.753906 421.273438 193.441406 425.578125 193.292969 429.824219 C 193.144531 434.074219 193.136719 438.289062 193.25 442.46875 C 193.367188 446.648438 193.589844 450.796875 193.902344 454.910156 C 194.210938 459.027344 194.59375 463.109375 195.03125 467.164062 C 195.464844 471.214844 195.746094 473.253906 196.292969 476.425781 C 196.839844 479.601562 197.660156 483.929688 198.746094 489.425781 C 199.835938 494.917969 201.195312 501.582031 202.832031 509.414062 C 204.464844 517.246094 206.371094 526.25 208.550781 536.425781 C 210.730469 546.601562 211.289062 549.3125 211.777344 552.042969 C 212.269531 554.773438 212.699219 557.523438 213.078125 560.296875 C 213.457031 563.066406 213.789062 565.855469 214.085938 568.664062 C 214.386719 571.46875 214.652344 574.292969 214.902344 577.121094 C 215.152344 579.949219 215.589844 585.820312 215.847656 591.59375 C 216.105469 597.363281 216.195312 603.042969 216.125 608.636719 C 216.054688 614.230469 215.835938 619.734375 215.476562 625.15625 C 215.117188 630.578125 214.625 635.914062 214.015625 641.160156 C 213.40625 646.40625 212.273438 653.558594 210.519531 660.953125 C 208.765625 668.347656 206.363281 675.929688 203.28125 683.609375 C 200.195312 691.292969 196.40625 698.996094 191.921875 706.664062 C 187.441406 714.332031 182.355469 721.992188 179.929688 726.09375 C 174.296875 733.820312 177.601562 730.273438 174.386719 733.898438 Z M 174.386719 733.898438 " fill-opacity="1" fill-rule="nonzero"/><path fill="currentColor" d="M 276.59375 598.394531 C 281.75 590.015625 289.386719 574.113281 295.742188 560.699219 C 302.097656 547.285156 307.496094 536.511719 311.929688 528.386719 C 316.363281 520.261719 319.816406 514.8125 323.273438 509.824219 C 326.734375 504.839844 332.132812 497.332031 339.625 487.753906 C 347.117188 478.171875 356.703125 466.53125 368.371094 452.832031 C 380.042969 439.128906 393.796875 423.375 403.695312 411.714844 C 413.597656 400.054688 417.925781 394.132812 421.902344 388.453125 C 425.878906 382.777344 429.5 377.347656 432.761719 372.164062 C 436.027344 366.984375 438.9375 362.046875 441.191406 357.980469 C 443.449219 353.914062 445.214844 350.492188 446.851562 347.011719 C 448.488281 343.53125 449.996094 339.988281 451.375 336.390625 C 452.753906 332.792969 454.003906 329.140625 456.632812 318.800781 C 459.265625 308.464844 462.925781 293.480469 465.980469 281.351562 C 469.03125 269.222656 471.476562 259.953125 473.304688 253.550781 C 475.132812 247.152344 476.328125 243.671875 477.722656 240.1875 C 479.117188 236.703125 481.09375 231.78125 483.109375 227.339844 C 485.125 222.898438 487.179688 218.933594 489.269531 215.453125 C 491.359375 211.96875 493.480469 208.96875 496.058594 205.933594 C 498.636719 202.898438 501.316406 199.957031 503.46875 197.71875 C 505.617188 195.484375 507.222656 193.964844 508.183594 193.214844 C 509.148438 192.464844 508.785156 192.464844 507.660156 193.105469 C 506.535156 193.742188 505.523438 197.242188 504.652344 201.054688 C 503.78125 204.867188 503.050781 209 502.460938 213.449219 C 501.871094 217.898438 501.421875 222.667969 501.378906 233.90625 C 501.339844 245.140625 501.53125 260.582031 501.59375 273.148438 C 501.652344 285.714844 501.578125 295.402344 501.375 302.203125 C 501.171875 309.003906 500.84375 312.859375 500.386719 316.226562 C 499.929688 319.59375 499.324219 324.125 498.539062 328.53125 C 497.753906 332.941406 496.785156 337.222656 495.636719 341.386719 C 494.484375 345.546875 493.15625 349.585938 490.917969 355.347656 C 488.683594 361.105469 485.34375 368.355469 481.511719 375.171875 C 477.675781 381.984375 473.351562 388.371094 468.527344 394.324219 C 463.703125 400.28125 458.386719 405.808594 454.535156 409.570312 C 450.683594 413.328125 446.925781 416.386719 440.308594 420.886719 C 433.691406 425.386719 424.253906 431.277344 412.023438 438.546875 C 399.789062 445.816406 384.757812 454.464844 374.660156 460.375 C 364.5625 466.289062 361.457031 468.511719 358.480469 470.789062 C 355.5 473.066406 352.648438 475.398438 349.925781 477.78125 C 347.199219 480.164062 344.601562 482.597656 343.261719 483.523438 C 341.921875 484.449219 339.691406 486.5625 335.78125 491.617188 C 331.871094 496.675781 325.976562 504.90625 318.0625 516.339844 C 310.152344 527.777344 300.523438 542.625 292.628906 555.589844 C 284.734375 568.554688 284.734375 568.554688 290.371094 560.164062 C 290.371094 560.164062 302.769531 544.136719 312.167969 530.679688 C 321.5625 517.222656 328.785156 506.886719 333.96875 499.777344 C 339.15625 492.667969 342.269531 488.828125 343.28125 488.257812 C 344.292969 487.683594 346.984375 485.074219 349.5625 482.710938 C 352.144531 480.347656 354.855469 478.03125 357.691406 475.765625 C 360.527344 473.5 363.488281 471.28125 366.535156 469.144531 C 369.578125 467.003906 386.464844 457.445312 400.585938 449.242188 C 414.710938 441.039062 426.050781 434.203125 434.617188 428.730469 C 443.183594 423.257812 448.996094 419.128906 452.03125 416.351562 C 455.070312 413.570312 460.796875 408.257812 466.078125 402.445312 C 471.363281 396.628906 476.140625 390.375 480.40625 383.6875 C 484.671875 376.996094 488.425781 369.871094 491.667969 362.328125 C 494.910156 354.785156 496.402344 350.714844 497.707031 346.527344 C 499.007812 342.339844 500.125 338.03125 501.054688 333.605469 C 501.984375 329.175781 502.726562 324.628906 503.273438 319.996094 C 503.824219 315.367188 504.253906 313.292969 504.554688 308.285156 C 504.855469 303.273438 505.015625 295.449219 505.046875 284.769531 C 505.074219 274.089844 504.96875 260.546875 504.730469 244.15625 C 504.496094 227.761719 504.847656 222.953125 505.335938 218.375 C 505.824219 213.792969 506.445312 209.546875 507.199219 205.628906 C 507.957031 201.710938 508.84375 198.128906 509.890625 194.777344 C 510.933594 191.425781 509.175781 189.054688 507.757812 189.636719 C 506.34375 190.21875 504.921875 191.414062 503.046875 193.257812 C 501.167969 195.105469 498.792969 197.625 495.898438 200.84375 C 493.003906 204.066406 490.730469 206.910156 488.519531 210.214844 C 486.308594 213.523438 484.15625 217.296875 482.0625 221.527344 C 479.964844 225.761719 477.921875 230.457031 475.941406 235.59375 C 473.957031 240.726562 473.125 242.421875 471.667969 247.035156 C 470.207031 251.648438 468.15625 259.058594 465.503906 269.3125 C 462.847656 279.5625 459.589844 292.660156 455.722656 308.59375 C 451.859375 324.527344 450.738281 328.066406 449.472656 331.625 C 448.210938 335.183594 446.816406 338.683594 445.300781 342.125 C 443.785156 345.570312 442.140625 348.957031 440.367188 352.289062 C 438.597656 355.621094 435.957031 360.335938 432.964844 365.296875 C 429.972656 370.253906 426.621094 375.46875 422.914062 380.933594 C 419.207031 386.402344 415.136719 392.125 410.742188 398.0625 C 406.347656 404 391.214844 421.109375 378.136719 436.199219 C 365.058594 451.289062 354.0625 464.332031 345.140625 475.328125 C 336.21875 486.328125 329.371094 495.285156 324.617188 502.179688 C 319.863281 509.074219 316.980469 512.871094 313.105469 519.363281 C 309.234375 525.855469 304.4375 534.945312 298.695312 546.648438 C 292.953125 558.351562 286.265625 572.679688 283.359375 581.058594 C 276.480469 598.34375 280.566406 589.484375 276.59375 598.394531 Z M 276.59375 598.394531 " fill-opacity="1" fill-rule="nonzero"/><path fill="currentColor" d="M 341.160156 433.230469 C 342.691406 430.664062 344.734375 425.226562 346.496094 419.742188 C 348.261719 414.257812 349.800781 408.75 351.105469 403.21875 C 352.410156 397.691406 353.539062 392.160156 354.558594 386.640625 C 355.574219 381.121094 356.496094 375.617188 357.046875 371.921875 C 357.59375 368.230469 357.90625 364.960938 358.34375 359.546875 C 358.785156 354.132812 359.339844 346.5625 360 336.824219 C 360.660156 327.089844 361.414062 315.1875 362.246094 301.109375 C 363.078125 287.035156 363.976562 270.78125 365.121094 253.246094 C 366.265625 235.714844 368.355469 220.113281 371.34375 206.570312 C 374.332031 193.027344 378.011719 180.949219 382.132812 169.601562 C 386.25 158.253906 390.609375 147.054688 394.941406 135.289062 C 399.269531 123.519531 403.359375 110.609375 406.136719 99.132812 C 408.910156 87.65625 409.917969 78.691406 409.929688 69.78125 C 409.941406 60.867188 409.097656 52.128906 407.578125 43.714844 C 406.058594 35.300781 403.996094 27.324219 401.570312 19.941406 C 399.144531 12.554688 396.488281 5.875 395.882812 4.886719 C 395.28125 3.898438 399.421875 6.347656 403.933594 9.617188 C 408.445312 12.882812 413.121094 16.898438 417.71875 21.582031 C 422.320312 26.261719 426.652344 31.535156 430.480469 37.3125 C 434.3125 43.09375 437.453125 49.304688 439.21875 54.042969 C 440.984375 58.78125 442.09375 62.632812 443.28125 67.519531 C 444.472656 72.410156 445.609375 78.140625 446.539062 84.464844 C 447.46875 90.792969 448.0625 97.519531 448.160156 104.398438 C 448.257812 111.277344 447.738281 118.109375 446.085938 126.507812 C 444.429688 134.902344 441.609375 144.582031 438.109375 153.667969 C 434.609375 162.753906 430.546875 171.316406 426.054688 179.429688 C 421.5625 187.542969 416.757812 195.273438 411.78125 202.695312 C 406.800781 210.121094 401.761719 217.304688 397.605469 223.367188 C 393.449219 229.425781 390.339844 234.929688 387.519531 240.960938 C 384.699219 246.996094 382.160156 253.433594 379.894531 260.113281 C 377.628906 266.792969 375.628906 273.582031 373.890625 280.324219 C 372.152344 287.066406 370.667969 293.625 369.179688 301.054688 C 367.691406 308.484375 365.917969 317.675781 364.082031 327.355469 C 362.246094 337.03125 360.441406 346.65625 358.789062 355.539062 C 357.132812 364.425781 355.726562 372.03125 354.691406 377.675781 C 353.652344 383.320312 353.074219 386.460938 352.664062 388.460938 C 352.25 390.460938 351.542969 393.457031 350.769531 396.578125 C 349.992188 399.695312 349.132812 402.933594 348.171875 406.285156 C 347.214844 409.636719 346.167969 413.109375 345.054688 416.710938 C 343.9375 420.308594 342.808594 424.0625 341.910156 426.941406 C 341.015625 429.820312 341.015625 429.820312 341.761719 427.960938 C 341.761719 427.960938 343.710938 424.421875 345.335938 420.890625 C 346.964844 417.355469 348.390625 413.886719 349.664062 410.503906 C 350.9375 407.117188 352.0625 403.816406 353.054688 400.605469 C 354.042969 397.398438 354.878906 394.277344 355.5625 391.25 C 356.246094 388.222656 356.457031 387.078125 357.195312 383.058594 C 357.929688 379.039062 359.109375 372.652344 360.605469 364.578125 C 362.101562 356.503906 363.820312 347.285156 365.640625 337.605469 C 367.464844 327.921875 369.292969 318.320312 371.007812 309.484375 C 372.726562 300.648438 374.027344 294.351562 375.578125 287.785156 C 377.132812 281.21875 378.9375 274.515625 381 267.835938 C 383.058594 261.15625 385.378906 254.636719 387.960938 248.449219 C 390.539062 242.257812 393.378906 236.535156 396.476562 231.433594 C 399.578125 226.328125 404.570312 219.28125 409.621094 211.992188 C 414.675781 204.699219 419.65625 197.121094 424.421875 189.175781 C 429.1875 181.230469 433.617188 172.855469 437.570312 163.972656 C 441.523438 155.085938 444.878906 145.632812 447.492188 135.539062 C 450.101562 125.441406 451.15625 118.496094 451.46875 111.414062 C 451.78125 104.332031 451.492188 97.300781 450.761719 90.550781 C 450.03125 83.800781 448.992188 77.527344 447.804688 71.960938 C 446.617188 66.394531 445.410156 61.730469 444.332031 58.171875 C 443.25 54.613281 440.585938 47.898438 437.066406 41.578125 C 433.546875 35.261719 429.378906 29.445312 424.804688 24.203125 C 420.230469 18.964844 415.433594 14.359375 410.648438 10.46875 C 405.863281 6.574219 401.269531 3.453125 395.914062 1.722656 C 390.5625 -0.00390625 393.316406 7.203125 395.859375 14 C 398.402344 20.796875 400.6875 28.257812 402.542969 36.226562 C 404.398438 44.199219 405.6875 52.554688 406.242188 61.148438 C 406.800781 69.738281 406.488281 78.4375 405.144531 87.097656 C 403.804688 95.757812 400.0625 109.648438 395.910156 122.019531 C 391.757812 134.386719 387.402344 145.824219 383.09375 157.054688 C 378.785156 168.285156 374.742188 179.886719 371.230469 192.566406 C 367.722656 205.246094 364.960938 219.566406 363.222656 236.222656 C 361.480469 252.875 360.542969 270.597656 359.667969 286.113281 C 358.789062 301.632812 357.984375 314.972656 357.261719 326.144531 C 356.539062 337.316406 355.914062 346.316406 355.394531 353.152344 C 354.878906 359.988281 354.480469 364.65625 354.226562 367.132812 C 353.96875 369.605469 353.105469 375.0625 352.15625 380.539062 C 351.210938 386.015625 350.167969 391.496094 349.007812 396.984375 C 347.847656 402.472656 346.664062 407.988281 345.390625 413.523438 C 344.117188 419.0625 342.757812 424.632812 342.363281 427.53125 C 341.042969 433.191406 342.082031 430.46875 341.160156 433.230469 Z M 341.160156 433.230469 " fill-opacity="1" fill-rule="nonzero"/></svg>